<?xml version="1.0" encoding="utf-8" ?>
<svg baseProfile="full" height="200mm" version="1.1" viewBox="0,0,200,200" width="200mm" xmlns="http://www.w3.org/2000/svg" xmlns:ev="http://www.w3.org/2001/xml-events" xmlns:xlink="http://www.w3.org/1999/xlink"><defs /><rect fill="#1a1a1a" height="200" width="200" x="0" y="0" /><text alignment-baseline="middle" fill="#e1ed5e" style="dominant-baseline: central; font-size:9.0px; font-family:Arial;" text-anchor="middle" x="100.0" y="100.0">2023</text><line stroke="#e1ed5e" stroke-width="0.3" x1="100.0" x2="100.0" y1="15.0" y2="10.0" /><path d="M 100.0 14.0 a86.0,86.0 0 0,1 42.46469731375804,11.215312516191453" fill="none" id="id25" stroke="none" /><text fill="#e1ed5e" style="font-size:6.75px; font-family:Arial;" text-anchor="middle"><textPath startOffset="22.20632615414155" xlink:href="#id25">January</textPath></text><path d="M 101.80526077348638 79.07773832637324 l 4.566520338951358 -52.92417299078933 a74.12081696251528,74.12081696251528 0 0,0 1.2702009325882122,0.12062088379924295 l -5.4768463986298155 52.837726562474906" fill="#3fffbb" stroke="none" /><path d="M 103.2404852339499 79.25152402106235 l 8.24328428216888 -52.78085643601466 a74.42069394790602,74.42069394790602 0 0,0 1.2639851423854975,0.20856837873622508 l -9.150598630693253 52.63114179433881" fill="#3fffbe" stroke="none" /><path d="M 103.95276090670814 79.375362276772 l 5.727484691294756 -29.884756404774695 a51.428650089376916,51.428650089376916 0 0,0 0.8680019574969859,0.17411302693543929 l -6.241053058258867 29.781739421762044" fill="#c7ff1e" stroke="none" /><path d="M 105.71112130821622 79.79150937346287 l 10.791344918928305 -38.18458423009836 a60.68016630490296,60.68016630490296 0 0,0 1.0026957760938386,0.2927143927703643 l -11.447030912745571 37.9931715084093" fill="#52ff2b" stroke="none" /><path d="M 106.40334571778207 80.00007090966166 l 9.851827819338512 -30.77076679614923 a53.30941968845761,53.30941968845761 0 0,0 0.8715256912064653,0.2873283179256126 l -10.380036332787395 30.59662475396438" fill="#aeff20" stroke="none" /><path d="M 107.4271985657038 80.35727306442388 l 15.5328568318482 -41.079777600974914 a64.91830790347294,64.91830790347294 0 0,0 1.0418363172955023,0.4042163052123365 l -16.237676314143368 40.80631859187203" fill="#31ff41" stroke="none" /><path d="M 108.09893153111575 80.62456947434976 l 16.460713823028932 -39.379690500577645 a63.68155483912156,63.68155483912156 0 0,0 1.0077340477241354,0.4314591277416018 l -17.13613162854338 39.090511844873255" fill="#2fff30" stroke="none" /><path d="M 108.76106565485865 80.91482961587045 l 11.717030413919428 -25.524465933167146 a49.08535495403473,49.08535495403473 0 0,0 0.7648475070025421,0.35910616002308304 l -12.154656132221568 25.31899479050406" fill="#e7ff1a" stroke="none" /><path d="M 109.73455568895987 81.39251694778311 l 23.354404109528257 -44.64165520728609 a71.38159952757916,71.38159952757916 0 0,0 1.0838274569571895,0.5789430921847175 l -24.11937661301376 44.23303338859962" fill="#3bff98" stroke="none" /><path d="M 110.36928655335952 81.73862282372117 l 13.189661001813827 -23.228345859854926 a47.71185520939734,47.71185520939734 0 0,0 0.7106868671257446,0.4116757051024146 l -13.587544601404899 22.99786599736246" fill="#faff18" stroke="none" /><line stroke="#e1ed5e" stroke-width="0.3" x1="143.23703022742887" x2="145.7803849466894" y1="26.81831364943548" y2="22.513508569990506" /><path d="M 143.74570117128098 25.957352633546492 a86.0,86.0 0 0,1 28.547481713284135,27.462654790039103" fill="none" id="id26" stroke="none" /><text fill="#e1ed5e" style="font-size:6.75px; font-family:Arial;" text-anchor="middle"><textPath startOffset="19.985693538727396" xlink:href="#id26">February</textPath></text><path d="M 112.77801427241765 83.33499621200491 l 9.235386496527598 -12.044731494818658 a36.17787602145046,36.17787602145046 0 0,0 0.4909293756948406,0.383178164722548 l -9.441348427381868 11.883974940872886" fill="#ff5407" stroke="none" /><path d="M 113.06298171725822 83.55741782278167 l 15.647494818285914 -19.695749790214467 a46.15485348569969,46.15485348569969 0 0,0 0.6178082121230491,0.4995579418555701 l -15.984206428973454 19.42348575109477" fill="#ffed16" stroke="none" /><path d="M 113.34407831869373 83.78471172551755 l 10.271613656656013 -12.48172953642351 a37.164764747191015,37.164764747191015 0 0,0 0.49047306858911827,0.41075708969304847 l -10.48494426220425 12.303071289336643" fill="#ff6409" stroke="none" /><path d="M 114.16331599549186 84.49514656593476 l 6.826900957288202 -7.473539302895242 a31.122270812053117,31.122270812053117 0 0,0 0.3924253309254008,0.3647165770375879 l -6.954534172008449 7.354918139783013" fill="#ff0000" stroke="none" /><path d="M 114.94478906791727 85.2469230424477 l 13.243655327614889 -13.073765401416209 a39.609614402451484,39.609614402451484 0 0,0 0.4748169260017648,0.4893405798309418 l -13.466736517319763 12.843860626035152" fill="#ff8b0c" stroke="none" /><path d="M 115.19652480421416 85.50635884689758 l 7.324557118629747 -6.985774961745345 a31.121768066905005,31.121768066905005 0 0,0 0.3663960982950026,0.3908458114319424 l -7.443720538895214 6.858659733435347" fill="#ff0000" stroke="none" /><path d="M 115.4437574822437 85.77008943001954 l 11.99284573189013 -11.050233237641798 a37.30754436925434,37.30754436925434 0 0,0 0.43109109019995123,0.4760215489313967 l -12.181280462706116 10.842158901440852" fill="#ff6709" stroke="none" /><path d="M 115.9244219780498 86.31012108654704 l 22.220637913670153 -19.102598690058084 a50.30300370275792,50.30300370275792 0 0,0 0.5588169939796032,0.6614630609185959 l -22.546165521136874 18.717276679510384" fill="#d6ff1c" stroke="none" /><path d="M 116.15771136456269 86.58626213691792 l 17.990591432291705 -14.935350188507497 a44.38217409346271,44.38217409346271 0 0,0 0.4829235097754081,0.5920071214661019 l -18.245013434143523 14.623458897433293" fill="#ffd413" stroke="none" /><path d="M 116.60985879189232 87.15038557335679 l 35.83846902140766 -27.725130859695938 a66.3109119637385,66.3109119637385 0 0,0 0.6906567558166804,0.908823332779831 l -36.31040171744846 27.104122751035074" fill="#33ff55" stroke="none" /><path d="M 117.65298651832404 88.62581576622439 l 29.660516618094107 -19.110884163026856 a56.284162729826356,56.284162729826356 0 0,0 0.5177403337049691,0.8189408723111833 l -29.98508454804503 18.597495643001466" fill="#87ff25" stroke="none" /><line stroke="#e1ed5e" stroke-width="0.3" x1="172.23445277983987" x2="176.4835382374775" y1="55.19839476539836" y2="52.563006222186495" /><path d="M 173.08426987136738 54.67131705675599 a86.0,86.0 0 0,1 12.851231095245387,41.99856678651699" fill="none" id="id27" stroke="none" /><text fill="#e1ed5e" style="font-size:6.75px; font-family:Arial;" text-anchor="middle"><textPath startOffset="22.20632615414155" xlink:href="#id27">March</textPath></text><path d="M 118.03404312379186 89.2402003453031 l 31.911587001690613 -19.039672936604628 a58.15990487742594,58.15990487742594 0 0,0 0.50554895090953,0.864147033204571 l -32.23459562707047 18.487546491046164" fill="#70ff27" stroke="none" /><path d="M 118.3937258080291 89.86733742301442 l 32.09405128159917 -17.679843429163384 a57.64157462972421,57.64157462972421 0 0,0 0.4712662624865745,0.8731848114465028 l -32.393625643304205 17.124777634384422" fill="#76ff27" stroke="none" /><path d="M 118.56541770881063 90.18545643968196 l 45.964342707187505 -24.298890054436548 a72.9918922369765,72.9918922369765 0 0,0 0.5776459021704203,1.1158280219953731 l -46.37579804251804 23.50408931018083" fill="#3dffad" stroke="none" /><path d="M 118.89224826269711 90.83032412892265 l 20.294934979341434 -9.850493863803523 a43.559180286006125,43.559180286006125 0 0,0 0.32159495172928365,0.6773609852798265 l -20.461488124912474 9.499690462883157" fill="#ffc712" stroke="none" /><path d="M 119.196687751892 91.48605970444005 l 29.301021953142044 -12.995322668795055 a53.053522408069455,53.053522408069455 0 0,0 0.3630611450290044,0.8379951793071655 l -29.52037380801373 12.489028344901287" fill="#b1ff20" stroke="none" /><path d="M 119.47837535516314 92.15188598940014 l 35.185022719447225 -14.176545257639903 a58.93362966036772,58.93362966036772 0 0,0 0.37101933190398784,0.9442037306825731 l -35.423835601232916 13.568792522061544" fill="#67ff28" stroke="none" /><path d="M 119.61058180528143 92.48833698450437 l 58.83174541584429 -22.534989046486903 a84.0,84.0 0 0,0 0.505581645993499,1.354707451882667 l -59.21093165033941 21.518958457574904" fill="#4dd2ff" stroke="none" /><path d="M 119.97218684219823 93.5106431181261 l 21.324045313817273 -6.928602325822238 a43.42142811542391,43.42142811542391 0 0,0 0.22484962830978017,0.7128347674437904 l -21.440150425895258 6.560517391952029" fill="#ffc512" stroke="none" /><path d="M 120.08093135843002 93.85539295169968 l 41.73373018122769 -12.7701931771099 a64.6438090526047,64.6438090526047 0 0,0 0.3164286837545199,1.0668402164953064 l -41.94736476209391 12.049923573868066" fill="#31ff3e" stroke="none" /><line stroke="#e1ed5e" stroke-width="0.3" x1="184.98032266829074" x2="189.97916517819016" y1="98.17113171792111" y2="98.06355123074" /><path d="M 185.9800911702706 98.14961562048488 a86.0,86.0 0 0,1 -9.607161424134198,41.387399972396054" fill="none" id="id28" stroke="none" /><text fill="#e1ed5e" style="font-size:6.75px; font-family:Arial;" text-anchor="middle"><textPath startOffset="21.466115282336823" xlink:href="#id28">April</textPath></text><line stroke="#e1ed5e" stroke-width="0.3" x1="174.80103733775053" x2="179.2010983576182" y1="140.37084112569926" y2="142.7455964860345" /><path d="M 175.68104954172406 140.8457921977663 a86.0,86.0 0 0,1 -30.038265399797805,32.042727171017184" fill="none" id="id29" stroke="none" /><text fill="#e1ed5e" style="font-size:6.75px; font-family:Arial;" text-anchor="middle"><textPath startOffset="22.206326154141568" xlink:href="#id29">May</textPath></text><line stroke="#e1ed5e" stroke-width="0.3" x1="143.8653032363475" x2="146.44561519142675" y1="172.8068346515853" y2="177.08958963109032" /><path d="M 144.38136562736335 173.6633856474863 a86.0,86.0 0 0,1 -40.68145358897372,12.25698825130547" fill="none" id="id30" stroke="none" /><text fill="#e1ed5e" style="font-size:6.75px; font-family:Arial;" text-anchor="middle"><textPath startOffset="21.466115282336833" xlink:href="#id30">June</textPath></text><line stroke="#e1ed5e" stroke-width="0.3" x1="102.19456741930631" x2="102.32365962044197" y1="184.97166512339345" y2="189.96999836594603" /><path d="M 102.22038585953345 185.97133177190398 a86.0,86.0 0 0,1 -42.740103519485714,-10.115201625700543" fill="none" id="id31" stroke="none" /><text fill="#e1ed5e" style="font-size:6.75px; font-family:Arial;" text-anchor="middle"><textPath startOffset="22.20632615414155" xlink:href="#id31">July</textPath></text><line stroke="#e1ed5e" stroke-width="0.3" x1="58.666819895761336" x2="56.23545636021788" y1="174.27360380694188" y2="178.64263932499728" /><path d="M 58.180547188652646 175.14741091055294 a86.0,86.0 0 0,1 -31.652253787137756,-30.449443065178592" fill="none" id="id32" stroke="none" /><text fill="#e1ed5e" style="font-size:6.75px; font-family:Arial;" text-anchor="middle"><textPath startOffset="22.20632615414155" xlink:href="#id32">August</textPath></text><line stroke="#e1ed5e" stroke-width="0.3" x1="26.63291911575756" x2="22.317208475507996" y1="142.92168965132927" y2="145.44649492493687" /><path d="M 25.769776987707644 143.4266507060508 a86.0,86.0 0 0,1 -11.730757126820373,-40.83630448921669" fill="none" id="id33" stroke="none" /><text fill="#e1ed5e" style="font-size:6.75px; font-family:Arial;" text-anchor="middle"><textPath startOffset="21.46611528233685" xlink:href="#id33">September</textPath></text><line stroke="#e1ed5e" stroke-width="0.3" x1="15.007084014347285" x2="10.007500721073583" y1="101.09737516637583" y2="101.16192664675087" /><path d="M 14.007167355692545 101.11028546245083 a86.0,86.0 0 0,1 10.666146001902534,-42.60595125391555" fill="none" id="id34" stroke="none" /><text fill="#e1ed5e" style="font-size:6.75px; font-family:Arial;" text-anchor="middle"><textPath startOffset="22.20632615414155" xlink:href="#id34">October</textPath></text><line stroke="#e1ed5e" stroke-width="0.3" x1="26.266209847984243" x2="21.928928074336255" y1="57.711370442889674" y2="55.22380399835377" /><path d="M 25.398753493254645 57.213857153982495 a86.0,86.0 0 0,1 29.58750427330803,-30.492523968695096" fill="none" id="id35" stroke="none" /><text fill="#e1ed5e" style="font-size:6.75px; font-family:Arial;" text-anchor="middle"><textPath startOffset="21.46611528233685" xlink:href="#id35">November</textPath></text><line stroke="#e1ed5e" stroke-width="0.3" x1="56.762969772571076" x2="54.21961505331055" y1="26.818313649435495" y2="22.513508569990535" /><path d="M 56.25429882871897 25.957352633546506 a86.0,86.0 0 0,1 42.265352541879196,-11.944610805530505" fill="none" id="id36" stroke="none" /><text fill="#e1ed5e" style="font-size:6.75px; font-family:Arial;" text-anchor="middle"><textPath startOffset="22.20632615414155" xlink:href="#id36">December</textPath></text></svg>