<?xml version="1.0" encoding="utf-8" ?>
<svg baseProfile="full" height="200mm" version="1.1" viewBox="0,0,200,200" width="200mm" xmlns="http://www.w3.org/2000/svg" xmlns:ev="http://www.w3.org/2001/xml-events" xmlns:xlink="http://www.w3.org/1999/xlink"><defs /><rect fill="#1a1a1a" height="200" width="200" x="0" y="0" /><text alignment-baseline="middle" fill="#e1ed5e" style="dominant-baseline: central; font-size:9.0px; font-family:Arial;" text-anchor="middle" x="100.0" y="100.0">2023</text><line stroke="#e1ed5e" stroke-width="0.3" x1="100.0" x2="100.0" y1="15.0" y2="10.0" /><path d="M 100.0 14.0 a86.0,86.0 0 0,1 42.46469731375804,11.215312516191453" fill="none" id="id25" stroke="none" /><text fill="#e1ed5e" style="font-size:6.75px; font-family:Arial;" text-anchor="middle"><textPath startOffset="22.20632615414155" xlink:href="#id25">January</textPath></text><path d="M 101.80526077348638 79.07773832637324 l 4.51343047903296 -52.30888241463407 a73.50324022531444,73.50324022531444 0 0,0 1.2596175825971565,0.11961586719381764 l -5.413173188720361 52.22344100292507" fill="#3effb3" stroke="none" /><path d="M 103.2404852339499 79.25152402106235 l 8.147448771687305 -52.167232042259144 a73.79963087407125,73.79963087407125 0 0,0 1.2534368062149035,0.20682781288644508 l -9.044214784041083 52.01925796643308" fill="#3effb7" stroke="none" /><path d="M 103.95276090670814 79.375362276772 l 5.660897588341997 -29.53731953524148 a51.074889972078935,51.074889972078935 0 0,0 0.8620312685178786,0.172915362895556 l -6.1684952663270005 29.435500216268714" fill="#cbff1d" stroke="none" /><path d="M 105.71112130821622 79.79150937346287 l 10.665885937569952 -37.74065448111058 a60.218849084283754,60.218849084283754 0 0,0 0.9950728433182431,0.2904890496585879 l -11.313948998611622 37.55146710253329" fill="#56ff2a" stroke="none" /><path d="M 106.40334571778207 80.00007090966166 l 9.737291559769593 -30.413029267892767 a52.93379395201363,52.93379395201363 0 0,0 0.8653847975050815,0.2853037618217804 l -10.259359179517093 30.24091178181175" fill="#b2ff20" stroke="none" /><path d="M 107.4271985657038 80.35727306442388 l 15.352273557905143 -40.60218865437326 a64.40771851781743,64.40771851781743 0 0,0 1.033642164022246,0.40103710104612217 l -16.048898886927056 40.331908849436594" fill="#31ff3b" stroke="none" /><path d="M 108.09893153111575 80.62456947434976 l 16.26934338642596 -38.92186657839498 a63.185343807675935,63.185343807675935 0 0,0 0.9998817150901829,0.4280971687042611 l -16.936908859306456 38.63604988172793" fill="#34ff2f" stroke="none" /><path d="M 108.76106565485865 80.91482961587045 l 11.580809515475456 -25.227721317945523 a48.75883772656287,48.75883772656287 0 0,0 0.7597597188494545,0.3567173752654174 l -12.01334744562451 25.024638960040104" fill="#eaff1a" stroke="none" /><path d="M 109.73455568895987 81.39251694778311 l 23.082888392828902 -44.122656265955506 a70.79586862902843,70.79586862902843 0 0,0 1.0749339713188883,0.5741925001576494 l -23.8389674106761 43.7187850392961" fill="#3aff91" stroke="none" /><path d="M 110.36928655335952 81.73862282372117 l 13.036319463184373 -22.958295682410835 a47.401306137901656,47.401306137901656 0 0,0 0.7060611164450917,0.4089961717366337 l -13.429577312094793 22.73049535328415" fill="#fdff18" stroke="none" /><line stroke="#e1ed5e" stroke-width="0.3" x1="143.23703022742887" x2="145.7803849466894" y1="26.81831364943548" y2="22.513508569990506" /><path d="M 143.74570117128098 25.957352633546492 a86.0,86.0 0 0,1 28.547481713284135,27.462654790039103" fill="none" id="id26" stroke="none" /><text fill="#e1ed5e" style="font-size:6.75px; font-family:Arial;" text-anchor="middle"><textPath startOffset="19.985693538727396" xlink:href="#id26">February</textPath></text><path d="M 112.77801427241765 83.33499621200491 l 9.128016915533784 -11.904700779886705 a36.0014197151105,36.0014197151105 0 0,0 0.4885348850879976,0.3813092268231264 l -9.331584355781212 11.745813163840355" fill="#ff5307" stroke="none" /><path d="M 113.06298171725822 83.55741782278167 l 15.465578775803671 -19.466769183595627 a45.862405943873924,45.862405943873924 0 0,0 0.6138936402132686,0.4963926302780896 l -15.798375814581432 19.19767045605341" fill="#ffeb16" stroke="none" /><path d="M 113.34407831869373 83.78471172551755 l 10.15219701341535 -12.336618330638265 a36.97683498178033,36.97683498178033 0 0,0 0.4879929105860415,0.40868002869099745 l -10.363047460960509 12.16003714455345" fill="#ff6309" stroke="none" /><path d="M 114.16331599549186 84.49514656593476 l 6.747532162539233 -7.38665276232714 a31.004590412190623,31.004590412190623 0 0,0 0.39094148130085515,0.36333750052734687 l -6.873681527634935 7.269410675725152" fill="#ff0000" stroke="none" /><path d="M 114.94478906791727 85.2469230424477 l 13.08968605693118 -12.921771252206613 a39.39326108560882,39.39326108560882 0 0,0 0.47222340878673325,0.4866677323642524 l -13.310173729421022 12.694539324292245" fill="#ff890c" stroke="none" /><path d="M 115.19652480421416 85.50635884689758 l 7.239402628442657 -6.9045591154088966 a31.004093511901942,31.004093511901942 0 0,0 0.36501071756312914,0.38936798386005794 l -7.357180667976249 6.778921714670784" fill="#ff0000" stroke="none" /><path d="M 115.4437574822437 85.77008943001954 l 11.853418235093908 -10.921764449350633 a37.11795466376414,37.11795466376414 0 0,0 0.42890036888038313,0.4736024997338497 l -12.039662244590327 10.716109162347234" fill="#ff6509" stroke="none" /><path d="M 115.9244219780498 86.31012108654704 l 21.96230323724886 -18.88051399246414 a49.9623302257347,49.9623302257347 0 0,0 0.555032446053129,0.6569833498815152 l -22.284046296789107 18.49967169295352" fill="#daff1c" stroke="none" /><path d="M 116.15771136456269 86.58626213691792 l 17.78143480797043 -14.761713460652217 a44.11033552600445,44.11033552600445 0 0,0 0.47996562774797946,0.5883811078443821 l -18.032898927794818 14.453448183199734" fill="#ffd113" stroke="none" /><path d="M 116.60985879189232 87.15038557335679 l 35.42181494810655 -27.40280155766581 a65.7841323174483,65.7841323174483 0 0,0 0.6851701185383994,0.9016035612580059 l -35.888261006869065 26.789013220526773" fill="#33ff4e" stroke="none" /><path d="M 117.65298651832404 88.62581576622439 l 29.315686735496097 -18.88870313944143 a55.873952960106,55.873952960106 0 0,0 0.5139669428830512,0.8129722742126753 l -29.6364812746251 18.381283217514547" fill="#8cff24" stroke="none" /><line stroke="#e1ed5e" stroke-width="0.3" x1="172.23445277983987" x2="176.4835382374775" y1="55.19839476539836" y2="52.563006222186495" /><path d="M 173.08426987136738 54.67131705675599 a86.0,86.0 0 0,1 12.851231095245387,41.99856678651699" fill="none" id="id27" stroke="none" /><text fill="#e1ed5e" style="font-size:6.75px; font-family:Arial;" text-anchor="middle"><textPath startOffset="22.20632615414155" xlink:href="#id27">March</textPath></text><path d="M 118.03404312379186 89.2402003453031 l 31.54058642402043 -18.818319806854063 a57.72788793715394,57.72788793715394 0 0,0 0.5017936883899308,0.8577280722723453 l -31.859839786880684 18.272612322227822" fill="#75ff27" stroke="none" /><path d="M 118.3937258080291 89.86733742301442 l 31.720929394410696 -17.47429952672473 a57.2155837395296,57.2155837395296 0 0,0 0.4677834441221397,0.8667316779656438 l -32.0170209377513 16.925686865426627" fill="#7bff26" stroke="none" /><path d="M 118.56541770881063 90.18545643968196 l 45.42996634741282 -24.01639384870217 a72.38744025365577,72.38744025365577 0 0,0 0.5728623679925363,1.1065877565320497 l -45.83663814856548 23.230833369909774" fill="#3cffa5" stroke="none" /><path d="M 118.89224826269711 90.83032412892265 l 20.058988312047344 -9.73597311265398 a43.29690975344281,43.29690975344281 0 0,0 0.3196586232973455,0.6732825837768481 l -20.223605129186446 9.389248113236592" fill="#ffc512" stroke="none" /><path d="M 119.196687751892 91.48605970444005 l 28.960371515720475 -12.844240486110818 a52.68087170507785,52.68087170507785 0 0,0 0.360510984647883,0.8321090575475122 l -29.17717321021104 12.343832283976703" fill="#b5ff20" stroke="none" /><path d="M 119.47837535516314 92.15188598940014 l 34.775965540512125 -14.011730311906451 a58.49261748142539,58.49261748142539 0 0,0 0.3682429197784211,0.9371380646607529 l -35.012002010172246 13.411043242349914" fill="#6bff28" stroke="none" /><path d="M 119.61058180528143 92.48833698450437 l 58.1477740566804 -22.272999758596118 a83.26756897449246,83.26756897449246 0 0,0 0.5011732688095369,1.3428951927368917 l -58.522551913991556 21.268781428829893" fill="#4cdaff" stroke="none" /><path d="M 119.97218684219823 93.5106431181261 l 21.076134323703478 -6.848051162221665 a43.16075907434575,43.16075907434575 0 0,0 0.22349980313032064,0.7085554527519103 l -21.190889610602007 6.484245543043336" fill="#ffc312" stroke="none" /><path d="M 120.08093135843002 93.85539295169968 l 41.24853845432466 -12.62172832497276 a64.13641096020066,64.13641096020066 0 0,0 0.3139449917680482,1.0584664418263487 l -41.45968934320441 11.909832496399883" fill="#30ff37" stroke="none" /><path d="M 120.28053869075195 94.5502522615342 l 43.35587784847041 -11.650508936512887 a65.89394728124554,65.89394728124554 0 0,0 0.28492438669914244,1.0979298899239727 l -43.54999856703986 10.902482621040065" fill="#33ff50" stroke="none" /><path d="M 120.37134235888165 94.90015583598534 l 61.11402707664495 -15.299532492043943 a84.0,84.0 0 0,0 0.33906879895672226,1.4056590733623755 l -61.36832867586249 14.245288187022162" fill="#4dd2ff" stroke="none" /><path d="M 120.53481517161879 95.60439243477599 l 33.98676628671666 -7.275083109287879 a55.7566844919786,55.7566844919786 0 0,0 0.19281379453585046,0.9402285385821713 l -34.106959377167506 6.688978914542296" fill="#8dff24" stroke="none" /><path d="M 120.78858239683441 97.02765380044208 l 19.813641071044678 -2.8329493378967565 a41.01514362784535,41.01514362784535 0 0,0 0.09391296213544284,0.6997606504495404 l -19.859470032237958 2.491470345382552" fill="#ffa20f" stroke="none" /><path d="M 120.91429891909075 98.10471618934814 l 24.976706751820306 -2.2634250439498897 a46.079054469736406,46.079054469736406 0 0,0 0.06478608896802786,0.7905543825557706 l -25.011967324607827 1.8331567441863506" fill="#ffee16" stroke="none" /><path d="M 120.98425023603335 99.18683210126433 l 24.92866564171811 -0.9660192968606068 a45.94737589323743,45.94737589323743 0 0,0 0.023823288937471307,0.7905789789386491 l -24.941600625111224 0.5367701704969587" fill="#ffec16" stroke="none" /><line stroke="#e1ed5e" stroke-width="0.3" x1="184.98032266829074" x2="189.97916517819016" y1="98.17113171792111" y2="98.06355123074" /><path d="M 185.9800911702706 98.14961562048488 a86.0,86.0 0 0,1 -9.607161424134198,41.387399972396054" fill="none" id="id28" stroke="none" /><text fill="#e1ed5e" style="font-size:6.75px; font-family:Arial;" text-anchor="middle"><textPath startOffset="21.466115282336823" xlink:href="#id28">April</textPath></text><path d="M 120.99513854157772 99.54816195383933 l 39.790511964086136 -0.8563347722607737 a60.79972552174531,60.79972552174531 0 0,0 0.013511994583563499,1.046518871237469 l -39.79935696578742 0.17127964296284215" fill="#4fff2b" stroke="none" /><path d="M 120.9904718944345 100.63252640178507 l 32.70057448908412 0.9853983665497904 a53.71541810610004,53.71541810610004 0 0,0 -0.03580482316625061,0.923963390765674 l -32.67876753306667 -1.5481390043294707" fill="#a7ff21" stroke="none" /><path d="M 120.92983693683757 101.71520430193887 l 26.52010714040159 2.173328057565343 a47.60901045856798,47.60901045856798 0 0,0 -0.07396491366951062,0.8161966589462013 l -26.478767630455003 -2.6295061050601145" fill="#faff18" stroke="none" /><path d="M 120.76222939487914 103.15116336523771 l 39.43654352478654 5.985435804767675 a60.88817377312952,60.88817377312952 0 0,0 -0.16619063337241874,1.0348692326513993 l -39.32767113705283 -6.663384267112279" fill="#4eff2b" stroke="none" /><path d="M 120.64145759157962 103.86396538481128 l 41.68292828636079 7.802810984713196 a63.40696133642515,63.40696133642515 0 0,0 -0.21005840714212246,1.0710832924966844 l -41.54243994624301 -8.519158004277825" fill="#31ff2f" stroke="none" /><path d="M 120.49622156327973 104.57218783832717 l 48.6973191848583 10.863138352048393 a70.89425488618618,70.89425488618618 0 0,0 -0.27594553681771417,1.1887661504450382 l -48.50311308211003 -11.699773159841996" fill="#3aff92" stroke="none" /><path d="M 120.23288151984713 105.62410040840565 l 47.98259784976287 13.337642880896718 a70.80183143249255,70.80183143249255 0 0,0 -0.3365020999481888,1.1714079548478213 l -47.74590311292857 -14.161608311249122" fill="#3aff91" stroke="none" /><path d="M 120.13307415673323 105.97154293290107 l 33.439996697550725 9.918424498958663 a55.87991576357011,55.87991576357011 0 0,0 -0.2814570972570592,0.9198180788347289 l -33.264312827787535 -10.492569550345449" fill="#8cff24" stroke="none" /><path d="M 120.02730092923936 106.31721596034902 l 47.855212350083676 15.094980212858966 a71.17947565188585,71.17947565188585 0 0,0 -0.37863328566266785,1.165313429910576 l -47.588286813404764 -15.916492542747338" fill="#3aff96" stroke="none" /><path d="M 119.79798401119884 107.00284435728193 l 56.33398252053155 19.926175887099053 a80.75424731437224,80.75424731437224 0 0,0 -0.47481858876708555,1.306496829817604 l -55.982639670759234 -20.89292051392279" fill="#48f5ff" stroke="none" /><path d="M 119.41010516605496 108.01547362559984 l 46.046526992057586 19.015081036282904 a70.81822914201882,70.81822914201882 0 0,0 -0.474984670873885,1.1227234537423305 l -45.71239133999139 -19.804879015691398" fill="#3aff91" stroke="none" /><path d="M 119.26925614724726 108.34839909993367 l 31.958276983409572 13.845913343252823 a55.82873503383654,55.82873503383654 0 0,0 -0.3896285165421079,0.8785094458781071 l -31.715207382136192 -14.393971125623617" fill="#8cff24" stroke="none" /><path d="M 119.12269723197855 108.67885076344098 l 37.614637757190295 17.071432113124057 a62.30732099758648,62.30732099758648 0 0,0 -0.4516550386924392,0.9728247722249981 l -37.31520810165802 -17.716376952627886" fill="#3eff2d" stroke="none" /><path d="M 118.81262510543309 109.33194174019688 l 40.12205618825423 19.902415997093488 a65.78711371918034,65.78711371918034 0 0,0 -0.5119532207100209,1.0101322734755047 l -39.77352429775794 -20.590102482271686" fill="#33ff4e" stroke="none" /><line stroke="#e1ed5e" stroke-width="0.3" x1="174.80103733775053" x2="179.2010983576182" y1="140.37084112569926" y2="142.7455964860345" /><path d="M 175.68104954172406 140.8457921977663 a86.0,86.0 0 0,1 -30.038265399797805,32.042727171017184" fill="none" id="id29" stroke="none" /><text fill="#e1ed5e" style="font-size:6.75px; font-family:Arial;" text-anchor="middle"><textPath startOffset="22.206326154141568" xlink:href="#id29">May</textPath></text><path d="M 117.55443506779139 111.5257021239791 l 20.554248849902713 13.495287584661908 a45.588613884813775,45.588613884813775 0 0,0 -0.4363414199751073,0.6522712192814831 l -20.318904324516886 -13.847095718149198" fill="#ffe715" stroke="none" /><path d="M 116.93607887273984 112.41649034213515 l 32.86469708848124 24.094372555925013 a61.75079267427003,61.75079267427003 0 0,0 -0.6358530089741972,0.8518290151345986 l -32.445082812811954 -24.656514450568928" fill="#44ff2d" stroke="none" /><path d="M 116.71984013943494 112.70617746262583 l 28.20439457149344 21.433819920686616 a56.42451847995836,56.42451847995836 0 0,0 -0.5943199442628526,0.7682386430944541 l -27.831267810012523 -21.916136557894323" fill="#85ff25" stroke="none" /><path d="M 115.32070863581623 114.36230785411682 l 29.032202714006516 27.216067022311908 a60.794259618569875,60.794259618569875 0 0,0 -0.7222747375523598,0.7573021747073021 l -28.559421425075193 -27.711776313601714" fill="#50ff2b" stroke="none" /><path d="M 114.81725581225074 114.88116024355365 l 12.76516650580278 12.820220607343355 a39.09164261038285,39.09164261038285 0 0,0 -0.48092036810004,0.47068180050585245 l -12.542596185326945 -13.038052510771779" fill="#ff850c" stroke="none" /><path d="M 114.29624159901734 115.38237550388516 l 27.12098040697591 29.181453164745832 a60.83848374426198,60.83848374426198 0 0,0 -0.7732294629093521,0.706326781274079 l -26.614651394599694 -29.643972712606494" fill="#4fff2b" stroke="none" /><path d="M 113.75828350139079 115.86535959552629 l 30.088391328676877 34.69641747330749 a66.9255122805357,66.9255122805357 0 0,0 -0.8768342345781981,0.7472571572200127 l -29.486691617521632 -35.209199020750454" fill="#34ff5e" stroke="none" /><path d="M 113.48314897796784 116.09983520530334 l 13.212286418640433 15.776406117960038 a41.57813165491458,41.57813165491458 0 0,0 -0.5526523116280102,0.4547952280920353 l -12.938763978467733 -16.001496464909252" fill="#ffab0f" stroke="none" /><path d="M 112.92097659922987 116.55440617244103 l 15.321302832738798 19.629713608431633 a45.901164166390615,45.901164166390615 0 0,0 -0.6270345394305409,0.48078334671091205 l -14.981139564814763 -19.890536296969916" fill="#ffeb16" stroke="none" /><path d="M 112.34349029814194 116.9893568818739 l 15.414029162946399 21.215591061494834 a47.22391273484454,47.22391273484454 0 0,0 -0.6617479519006567,0.47213959318325993 l -15.046553883196859 -21.477774916522314" fill="#fffe18" stroke="none" /><line stroke="#e1ed5e" stroke-width="0.3" x1="143.8653032363475" x2="146.44561519142675" y1="172.8068346515853" y2="177.08958963109032" /><path d="M 144.38136562736335 173.6633856474863 a86.0,86.0 0 0,1 -40.68145358897372,12.25698825130547" fill="none" id="id30" stroke="none" /><text fill="#e1ed5e" style="font-size:6.75px; font-family:Arial;" text-anchor="middle"><textPath startOffset="21.466115282336833" xlink:href="#id30">June</textPath></text><line stroke="#e1ed5e" stroke-width="0.3" x1="102.19456741930631" x2="102.32365962044197" y1="184.97166512339345" y2="189.96999836594603" /><path d="M 102.22038585953345 185.97133177190398 a86.0,86.0 0 0,1 -42.740103519485714,-10.115201625700543" fill="none" id="id31" stroke="none" /><text fill="#e1ed5e" style="font-size:6.75px; font-family:Arial;" text-anchor="middle"><textPath startOffset="22.20632615414155" xlink:href="#id31">July</textPath></text><path d="M 99.45781275523022 120.99299961872073 l -0.5743756834884253 22.239306846096873 a43.24672282428659,43.24672282428659 0 0,0 -0.7440076577705927,-0.02562512807206899 l 0.9571036929336612 -22.22612491959871" fill="#ffc412" stroke="none" /><path d="M 98.37488393609728 120.93702456842531 l -1.8509911232790985 23.847063901985738 a44.91879229567934,44.91879229567934 0 0,0 -0.7703694421655416,-0.06647071701560232 l 2.2612048831861817 -23.81166893269147" fill="#ffdd14" stroke="none" /><path d="M 98.01472825383883 120.90594882070398 l -1.5338387453422626 16.152123441711847 a37.22478822582934,37.22478822582934 0 0,0 -0.6373724021080066,-0.06606625553701054 l 1.8116437440558626 -16.123327817719076" fill="#ff6709" stroke="none" /><path d="M 97.2962882734958 120.8252237178851 l -3.273409159766221 25.213293785741943 a46.42489707065448,46.42489707065448 0 0,0 -0.7915918237188386,-0.10970741376630107 l 3.706929574671891 -25.15321180648304" fill="#fff316" stroke="none" /><path d="M 96.93821686468263 120.77559828337769 l -2.9857855367903663 20.2599198346705 a41.478751597179496,41.478751597179496 0 0,0 -0.7054629758477836,-0.11017880824855297 l 3.334084376246667 -20.205522719074843" fill="#ffaa0f" stroke="none" /><path d="M 95.86986931433489 120.58985236759428 l -4.903052071139648 24.443080855959785 a45.929984383133785,45.929984383133785 0 0,0 -0.7738295548175073,-0.16216350701584448 l 5.3230730873865415 -24.3550613682174" fill="#ffec16" stroke="none" /><path d="M 95.51606077576429 120.51570834832081 l -3.2617893987667075 14.923913249548697 a36.276205574748005,36.276205574748005 0 0,0 -0.60888721531338,-0.13858074783874355 l 3.5181967634729503 -14.865555768132266" fill="#ff5808" stroke="none" /><path d="M 91.40352486487194 119.15986991738527 l -9.632437651412355 21.468828733561583 a44.53071317022384,44.53071317022384 0 0,0 -0.6966554498914195,-0.3198003482530703 l 10.000561097071193 -21.299841314974437" fill="#ffd714" stroke="none" /><path d="M 90.42595943632237 118.69057910512821 l -4.554816610035077 8.891978218913156 a30.99067720410771,30.99067720410771 0 0,0 -0.472695040254307,-0.24729170411376422 l 4.70720255281588 -8.812257095854676" fill="#ff0000" stroke="none" /><path d="M 90.10565033884886 118.52300852407294 l -11.711349512558876 21.924576579425963 a45.85644314040982,45.85644314040982 0 0,0 -0.6930375705528017,-0.3778993410711753 l 12.087009894980318 -21.719736586595022" fill="#ffeb16" stroke="none" /><line stroke="#e1ed5e" stroke-width="0.3" x1="58.666819895761336" x2="56.23545636021788" y1="174.27360380694188" y2="178.64263932499728" /><path d="M 58.180547188652646 175.14741091055294 a86.0,86.0 0 0,1 -31.652253787137756,-30.449443065178592" fill="none" id="id32" stroke="none" /><text fill="#e1ed5e" style="font-size:6.75px; font-family:Arial;" text-anchor="middle"><textPath startOffset="22.20632615414155" xlink:href="#id32">August</textPath></text><path d="M 89.1626897886671 117.98757091392108 l -15.414356966386643 25.584470096226163 a50.86917325256732,50.86917325256732 0 0,0 -0.746131592573228,-0.4583349648710058 l 15.85246775889218 -25.31534666452678" fill="#cdff1d" stroke="none" /><path d="M 88.8546689885994 117.79835938074946 l -15.294963860399418 24.42504966649297 a49.8187260423075,49.8187260423075 0 0,0 -0.7228891630442832,-0.46138206617183786 l 15.713134825490625 -24.15815317149733" fill="#dcff1b" stroke="none" /><path d="M 88.54995079064634 117.60387380957326 l -11.10352957141029 17.071117323783568 a41.36446453078416,41.36446453078416 0 0,0 -0.593531416009462,-0.3933602582521698 l 11.395735686159714 -16.87745904444008" fill="#ffa80f" stroke="none" /><path d="M 88.24862548938628 117.40417183066458 l -13.962786215760433 20.679345238673555 a45.9518479958355,45.9518479958355 0 0,0 -0.6517353125911924,-0.44826949084008194 l 14.316678412974516 -20.43593495846837" fill="#ffec16" stroke="none" /><path d="M 87.95078237400918 117.19931262002967 l -8.644747708051385 12.33969897193507 a36.06651365292698,36.06651365292698 0 0,0 -0.5053994927534011,-0.3605891188907537 l 8.855874528653674 -12.189065591200096" fill="#ff5507" stroke="none" /><path d="M 87.65650970185807 116.9893568818739 l -9.094788329796073 12.51790222764354 a36.47297808906346,36.47297808906346 0 0,0 -0.5047426479179159,-0.37339654423719615 l 9.308915948132553 -12.359495734666577" fill="#ff5b08" stroke="none" /><path d="M 87.07902340077011 116.55440617244103 l -21.449457083719906 27.481129000992507 a55.86103355260044,55.86103355260044 0 0,0 -0.7529069998156102,-0.5981548559333968 l 21.919321576252877 -27.10784023105398" fill="#8cff24" stroke="none" /><path d="M 86.51685102203217 116.09983520530335 l -16.028746576169663 19.139459101548567 a45.96476740334107,45.96476740334107 0 0,0 -0.6022140177983186,-0.5132198507218381 l 16.35582607054504 -18.860714860603778" fill="#ffec16" stroke="none" /><path d="M 85.97065885151581 115.62618273729859 l -16.65050620712863 18.54569290940851 a45.923524679381,45.923524679381 0 0,0 -0.5836671155712767,-0.5331660714606182 l 16.96727287216676 -18.256334071361312" fill="#ffeb16" stroke="none" /><path d="M 85.44109423537348 115.13401014063109 l -11.732007352234179 12.195443882195176 a37.92243623112962,37.92243623112962 0 0,0 -0.46653634315896403,-0.45660400466507334 l 11.940193647768936 -11.991689774607533" fill="#ff720a" stroke="none" /><path d="M 85.18274418774928 114.88116024355367 l -17.574761774187024 17.650558883361274 a45.90812077043206,45.90812077043206 0 0,0 -0.5551808407492389,-0.5623952605560638 l 17.875983239991797 -17.345423128824546" fill="#ffeb16" stroke="none" /><path d="M 84.67929136418377 114.36230785411682 l -18.15849452387571 17.022573480022523 a45.88973545975108,45.88973545975108 0 0,0 -0.5352788350948474,-0.5809394566415756 l 18.448819766966288 -16.707482768579602" fill="#ffeb16" stroke="none" /><path d="M 84.19399662182784 113.82643327865904 l -18.76397225607581 16.413941224352904 a45.929984383133785,45.929984383133785 0 0,0 -0.5154164216753634,-0.5995457406938212 l 19.043731187321953 -16.08851838449755" fill="#ffec16" stroke="none" /><path d="M 83.95833913139862 113.55231037782056 l -11.508758637451946 9.722825485199932 a36.066016752638305,36.066016752638305 0 0,0 -0.39656131124242444,-0.4776836457377547 l 11.674415948587907 -9.523280582348416" fill="#ff5407" stroke="none" /><line stroke="#e1ed5e" stroke-width="0.3" x1="26.63291911575756" x2="22.317208475507996" y1="142.92168965132927" y2="145.44649492493687" /><path d="M 25.769776987707644 143.4266507060508 a86.0,86.0 0 0,1 -11.730757126820373,-40.83630448921669" fill="none" id="id33" stroke="none" /><text fill="#e1ed5e" style="font-size:6.75px; font-family:Arial;" text-anchor="middle"><textPath startOffset="21.46611528233685" xlink:href="#id33">September</textPath></text><path d="M 81.35079622478065 109.6543875284942 l -17.762239135869798 9.195220453290153 a41.001230419762436,41.001230419762436 0 0,0 -0.31907026740939826,-0.6295559078028643 l 17.917888073065463 -8.888110333784603" fill="#ffa20f" stroke="none" /><path d="M 81.18737489456691 109.33194174019688 l -22.421842945451345 11.122282557704722 a46.028867540580194,46.028867540580194 0 0,0 -0.3459765163330026,-0.7128140985051286 l 22.609972718399064 -10.73467950323431" fill="#ffed16" stroke="none" /><path d="M 81.02952815118164 109.00673069616217 l -22.48922460124105 10.677351157267069 a45.895201362926514,45.895201362926514 0 0,0 -0.3326864101278475,-0.716576930242906 l 22.669685628208725 -10.288654159745334" fill="#ffeb16" stroke="none" /><line stroke="#e1ed5e" stroke-width="0.3" x1="15.007084014347285" x2="10.007500721073583" y1="101.09737516637583" y2="101.16192664675087" /><path d="M 14.007167355692545 101.11028546245083 a86.0,86.0 0 0,1 10.666146001902534,-42.60595125391555" fill="none" id="id34" stroke="none" /><text fill="#e1ed5e" style="font-size:6.75px; font-family:Arial;" text-anchor="middle"><textPath startOffset="22.20632615414155" xlink:href="#id34">October</textPath></text><line stroke="#e1ed5e" stroke-width="0.3" x1="26.266209847984243" x2="21.928928074336255" y1="57.711370442889674" y2="55.22380399835377" /><path d="M 25.398753493254645 57.213857153982495 a86.0,86.0 0 0,1 29.58750427330803,-30.492523968695096" fill="none" id="id35" stroke="none" /><text fill="#e1ed5e" style="font-size:6.75px; font-family:Arial;" text-anchor="middle"><textPath startOffset="21.46611528233685" xlink:href="#id35">November</textPath></text><line stroke="#e1ed5e" stroke-width="0.3" x1="56.762969772571076" x2="54.21961505331055" y1="26.818313649435495" y2="22.513508569990535" /><path d="M 56.25429882871897 25.957352633546506 a86.0,86.0 0 0,1 42.265352541879196,-11.944610805530505" fill="none" id="id36" stroke="none" /><text fill="#e1ed5e" style="font-size:6.75px; font-family:Arial;" text-anchor="middle"><textPath startOffset="22.20632615414155" xlink:href="#id36">December</textPath></text></svg>