<?xml version="1.0" encoding="utf-8" ?>
<svg baseProfile="full" height="200mm" version="1.1" viewBox="0,0,200,200" width="200mm" xmlns="http://www.w3.org/2000/svg" xmlns:ev="http://www.w3.org/2001/xml-events" xmlns:xlink="http://www.w3.org/1999/xlink"><defs /><rect fill="#1a1a1a" height="200" width="200" x="0" y="0" /><text alignment-baseline="middle" fill="#e1ed5e" style="dominant-baseline: central; font-size:9.0px; font-family:Arial;" text-anchor="middle" x="100.0" y="100.0">2022</text><line stroke="#e1ed5e" stroke-width="0.3" x1="100.0" x2="100.0" y1="15.0" y2="10.0" /><path d="M 100.0 14.0 a86.0,86.0 0 0,1 42.46469731375804,11.215312516191453" fill="none" id="id13" stroke="none" /><text fill="#e1ed5e" style="font-size:6.75px; font-family:Arial;" text-anchor="middle"><textPath startOffset="22.20632615414155" xlink:href="#id13">January</textPath></text><path d="M 100.72285384407766 79.0124445844662 l 0.36086311280369887 -10.47740790125199 a31.4836204869978,31.4836204869978 0 0,0 0.5414570556406816,0.02331627980105972 l -0.541161000833712 10.469643894926735" fill="#ff0b01" stroke="none" /><path d="M 102.52436894288641 79.15227682838746 l 2.0175071797817035 -16.661760674625114 a37.78346221728266,37.78346221728266 0 0,0 0.6449911767083863,0.08373836610746765 l -2.304013084997936 16.624563985353507" fill="#ff720a" stroke="none" /><path d="M 102.88285421437855 79.19881850522331 l 1.3910789026904293 -10.037304205011973 a31.13324115066159,31.13324115066159 0 0,0 0.5302006083462683,0.07813778736126513 l -1.5636484914653535 10.011871933489738" fill="#ff0500" stroke="none" /><path d="M 104.307194497241 79.44645832069477 l 2.784260844059002 -13.286240345329407 a34.57484036597186,34.57484036597186 0 0,0 0.5814455445939648,0.12708147532109804 l -3.0125491128064947 13.236345371912439" fill="#ff3e05" stroke="none" /><path d="M 104.66035177308747 79.52364482259891 l 2.998864643296047 -13.176219426114013 a34.51317681057698,34.51317681057698 0 0,0 0.5781389566493,0.13682681211835765 l -3.22522728690787 13.122646701854787" fill="#ff3d05" stroke="none" /><path d="M 105.01212808612495 79.60689891045804 l 3.217443095985354 -13.090974767367994 a34.480562318975025,34.480562318975025 0 0,0 0.5751540234990006,0.1466195669284335 l -3.4423060081693797 13.033652204270693" fill="#ff3d05" stroke="none" /><path d="M 105.71112130821622 79.79150937346287 l 3.7102371028160044 -13.12847121748598 a34.6426762721788,34.6426762721788 0 0,0 0.5724451214612648,0.16711242843333768 l -3.9356724420006963 13.062660460133939" fill="#ff3f05" stroke="none" /><path d="M 106.40334571778207 80.00007090966166 l 5.423057995041782 -16.938141423854855 a38.78511155185973,38.78511155185973 0 0,0 0.6340759541427378,0.20904487289262277 l -5.713816771426937 16.842282826702995" fill="#ff820b" stroke="none" /><path d="M 109.73455568895987 81.39251694778311 l 9.58379160545281 -18.319299367375258 a41.674762171504256,41.674762171504256 0 0,0 0.6327716358637471,0.33800469360891083 l -9.897708287844868 18.151615947264595" fill="#ffae10" stroke="none" /><path d="M 110.05341064243156 81.56283822128135 l 6.478902502813201 -11.8817959239374 a34.533412430686305,34.533412430686305 0 0,0 0.5194415766187688,0.2890686750008825 l -6.682468168504005 11.768511851376338" fill="#ff3e05" stroke="none" /><line stroke="#e1ed5e" stroke-width="0.3" x1="143.23703022742887" x2="145.7803849466894" y1="26.81831364943548" y2="22.513508569990506" /><path d="M 143.74570117128098 25.957352633546492 a86.0,86.0 0 0,1 28.547481713284135,27.462654790039103" fill="none" id="id14" stroke="none" /><text fill="#e1ed5e" style="font-size:6.75px; font-family:Arial;" text-anchor="middle"><textPath startOffset="19.985693538727396" xlink:href="#id14">February</textPath></text><path d="M 110.99172775467656 82.1063720568725 l 8.849931220408498 -14.406959498508591 a37.90803846096962,37.90803846096962 0 0,0 0.5530617597893676,0.3463272232421186 l -9.09661213257013 14.252487933943529" fill="#ff740a" stroke="none" /><path d="M 111.2981086023043 82.29822771554956 l 9.051132949764112 -14.18123157006411 a37.82350547650782,37.82350547650782 0 0,0 0.5457985409433682,0.3550025534036988 l -9.29389851649176 14.023330092500883" fill="#ff730a" stroke="none" /><path d="M 111.90073688211348 82.69761687909136 l 10.089870694310179 -14.669579717855205 a38.80455165755117,38.80455165755117 0 0,0 0.5470866375342155,0.3832691515964743 l -10.340888471428045 14.493725723494796" fill="#ff820c" stroke="none" /><path d="M 112.77801427241765 83.33499621200491 l 10.200056815573191 -13.30284830219796 a37.76326137695801,37.76326137695801 0 0,0 0.5124428620684904,0.3999697820784481 l -10.427532232801111 13.125300130896289" fill="#ff720a" stroke="none" /><path d="M 113.06298171725822 83.55741782278167 l 6.229579049441719 -7.841269908124936 a31.014647717484067,31.014647717484067 0 0,0 0.41514819371925393,0.3356876343659575 l -6.363630641725464 7.732876176494848" fill="#ff0300" stroke="none" /><path d="M 113.6212207817346 84.01681056812373 l 9.441645639268902 -11.078860934655951 a35.55629870492397,35.55629870492397 0 0,0 0.46241169873727445,0.4009988684644192 l -9.63095113665294 10.914697072771862" fill="#ff4e07" stroke="none" /><path d="M 117.65298651832404 88.62581576622439 l 14.16021082372602 -9.123716631799379 a37.844992601652876,37.844992601652876 0 0,0 0.3481241995673957,0.5506488815082619 l -14.315162619539372 8.87862010257691" fill="#ff730a" stroke="none" /><line stroke="#e1ed5e" stroke-width="0.3" x1="172.23445277983987" x2="176.4835382374775" y1="55.19839476539836" y2="52.563006222186495" /><path d="M 173.08426987136738 54.67131705675599 a86.0,86.0 0 0,1 12.851231095245387,41.99856678651699" fill="none" id="id15" stroke="none" /><text fill="#e1ed5e" style="font-size:6.75px; font-family:Arial;" text-anchor="middle"><textPath startOffset="22.20632615414155" xlink:href="#id15">March</textPath></text><path d="M 118.56541770881063 90.18545643968196 l 15.075493258185947 -7.969607126347053 a38.05242313355881,38.05242313355881 0 0,0 0.3011406557236781,0.581707895712565 l -15.210443347069742 7.708926508374144" fill="#ff760a" stroke="none" /><path d="M 118.89224826269711 90.83032412892265 l 15.22810728974196 -7.3912223698985455 a37.927061757705644,37.927061757705644 0 0,0 0.2800133408185686,0.5897795080689713 l -15.353078824402285 7.128000446189033" fill="#ff740a" stroke="none" /><path d="M 119.04729006885535 91.15688171328212 l 12.205642053535659 -5.6667345357039745 a34.45695278423679,34.45695278423679 0 0,0 0.24513280526039652,0.5401176428066171 l -12.301377175759402 5.455794884055295" fill="#ff3c05" stroke="none" /><path d="M 119.196687751892 91.48605970444005 l 15.720230982529367 -6.972093818865988 a38.1969693365763,38.1969693365763 0 0,0 0.2613933023581081,0.6033317811019839 l -15.837914994730157 6.700462893177401" fill="#ff790b" stroke="none" /><path d="M 119.47837535516314 92.15188598940014 l 9.71992725282482 -3.9162967066801824 a31.47923497660782,31.47923497660782 0 0,0 0.1981789480331968,0.5043438063332919 l -9.785899750739718 3.748403895451106" fill="#ff0b01" stroke="none" /><path d="M 119.97218684219823 93.5106431181261 l 16.04578188346458 -5.213590575394784 a37.87153350882976,37.87153350882976 0 0,0 0.19611055192256485,0.6217240416354929 l -16.133147919155356 4.9366163673328725" fill="#ff730a" stroke="none" /><path d="M 120.28053869075195 94.5502522615342 l 16.202021148640398 -4.3537762709252865 a37.77679519807829,37.77679519807829 0 0,0 0.16334626543665925,0.629439793862696 l -16.274563745947358 4.07424005151374" fill="#ff720a" stroke="none" /><path d="M 120.45610955862082 95.25157060432595 l 19.64627426447249 -4.560444202039434 a41.16863267043131,41.16863267043131 0 0,0 0.15429535574353517,0.6916758255193682 l -19.72186400721806 4.221590206970102" fill="#ffa70f" stroke="none" /><path d="M 120.6074358757038 95.95851677861258 l 19.594064676003246 -3.842743177971565 a40.96732444919061,40.96732444919061 0 0,0 0.12975771090894458,0.6931708802143507 l -19.65730811082205 3.5048942202946516" fill="#ffa40f" stroke="none" /><path d="M 120.67395015179393 96.31383870115 l 9.818142893701406 -1.750572972054921 a30.972985290855924,30.972985290855924 0 0,0 0.08906671070839538,0.5256767683783602 l -9.846821465930024 1.581310415360723" fill="#ff0200" stroke="none" /><path d="M 120.73433829027371 96.67025291283417 l 16.86692781825181 -2.7086759647693044 a38.083037771668,38.083037771668 0 0,0 0.09837049328769173,0.6481386429714289 l -16.911054204978804 2.417938209405793" fill="#ff770a" stroke="none" /><path d="M 120.83666639777658 97.38593545837742 l 16.769170280854972 -2.1037767072131883 a37.90061976207152,37.90061976207152 0 0,0 0.07563817119874379,0.6480216593781243 l -16.802898805057307 1.8148113095102112" fill="#ff740a" stroke="none" /><path d="M 120.87857604477298 97.74499172005257 l 27.293864659305648 -2.9478969574607294 a48.45259813774099,48.45259813774099 0 0,0 0.08242219398304773,0.8299802452900077 l -27.340563978970927 2.477641181466287" fill="#edff1a" stroke="none" /><path d="M 120.94382443527127 98.46500227214037 l 16.92924880304 -1.2407647193257347 a37.97465646556521,37.97465646556521 0 0,0 0.04216888312320629,0.6523339575265485 l -16.948098277167624 0.949171697546151" fill="#ff750a" stroke="none" /><path d="M 120.98425023603335 99.18683210126433 l 16.797561058191626 -0.6509280663322748 a37.81016849562237,37.81016849562237 0 0,0 0.019604222250660924,0.6505686956361513 l -16.806276974897933 0.36168922327112457" fill="#ff720a" stroke="none" /><line stroke="#e1ed5e" stroke-width="0.3" x1="184.98032266829074" x2="189.97916517819016" y1="98.17113171792111" y2="98.06355123074" /><path d="M 185.9800911702706 98.14961562048488 a86.0,86.0 0 0,1 -9.607161424134198,41.387399972396054" fill="none" id="id16" stroke="none" /><text fill="#e1ed5e" style="font-size:6.75px; font-family:Arial;" text-anchor="middle"><textPath startOffset="21.466115282336823" xlink:href="#id16">April</textPath></text><path d="M 120.99980553446 99.90962569577887 l 16.9371193908395 -0.07289021690917726 a37.93727623448565,37.93727623448565 0 0,0 -0.002810434450802964,0.6530459895969128 l -16.93586465909919 -0.21866525089142028" fill="#ff740a" stroke="none" /><path d="M 120.9904718944345 100.63252640178507 l 17.00310601704666 0.5123712092906403 a38.01082415649043,38.01082415649043 0 0,0 -0.02533668889327759,0.6538273592892376 l -16.99176719530218 -0.8049758155938841" fill="#ff760a" stroke="none" /><path d="M 120.95626037817324 101.35467743843564 l 25.46508641429001 1.6461418884250254 a46.51823679653602,46.51823679653602 0 0,0 -0.05853199528722467,0.7986225718074125 l -25.432977860338447 -2.084237596729208" fill="#fff517" stroke="none" /><path d="M 120.89721153311464 102.0752229133903 l 12.761296009787394 1.2672759636902564 a33.82406582241228,33.82406582241228 0 0,0 -0.0625224947191893,0.5788806507326615 l -12.737591213567153 -1.4867529363077094" fill="#ff3204" stroke="none" /><path d="M 120.81339534386255 102.79330883721812 l 20.164540336932454 2.706227782205842 a41.34532761616187,41.34532761616187 0 0,0 -0.1007368058814496,0.7045529857093787 l -20.114969480034404 -3.0529262398956303" fill="#ffa90f" stroke="none" /><path d="M 120.70491114924044 103.5080841355445 l 10.620952344263642 1.7995341373224054 a31.772323417467007,31.772323417467007 0 0,0 -0.09600318838038988,0.5384368642817324 l -10.588402713544063 -1.9820897523373562" fill="#ff1001" stroke="none" /><path d="M 120.32669344350535 105.2749913415812 l 16.237188178557712 4.213721591835356 a37.77503292394366,37.77503292394366 0 0,0 -0.1687499288022788,0.6279812615876625 l -16.162250173413657 -4.492593786598567" fill="#ff720a" stroke="none" /><path d="M 120.13307415673323 105.97154293290107 l 18.160249280439693 5.3863959078531325 a39.9422257088191,39.9422257088191 0 0,0 -0.20118181554811038,0.6574738135131692 l -18.06484069238545 -5.698196693918359" fill="#ff940d" stroke="none" /><path d="M 119.9155931802556 106.66101706037122 l 15.948409479434549 5.33414328495217 a37.81680259467055,37.81680259467055 0 0,0 -0.21179060616871795,0.6155626385115126 l -15.8542280423226 -5.607878626552984" fill="#ff730a" stroke="none" /><path d="M 119.67450827220406 107.3425965602758 l 9.226232905346011 3.443262980595336 a30.8478136445217,30.8478136445217 0 0,0 -0.18994279839381573,0.49588070957683394 l -9.165595827358688 -3.6015672570053137" fill="#ff0000" stroke="none" /><path d="M 119.41010516605496 108.01547362559984 l 13.913167871898061 5.745493348525121 a36.05280485655623,36.05280485655623 0 0,0 -0.24180962806243353,0.5715665313302013 l -13.812207262643318 -5.984134405521487" fill="#ff5608" stroke="none" /><path d="M 119.12269723197855 108.67885076344098 l 15.257561756602785 6.924656071953051 a37.75541860030313,37.75541860030313 0 0,0 -0.2736825268001763,0.589487814786999 l -15.136104612962777 -7.186263954018881" fill="#ff720a" stroke="none" /><line stroke="#e1ed5e" stroke-width="0.3" x1="174.80103733775053" x2="179.2010983576182" y1="140.37084112569926" y2="142.7455964860345" /><path d="M 175.68104954172406 140.8457921977663 a86.0,86.0 0 0,1 -30.038265399797805,32.042727171017184" fill="none" id="id17" stroke="none" /><text fill="#e1ed5e" style="font-size:6.75px; font-family:Arial;" text-anchor="middle"><textPath startOffset="22.206326154141568" xlink:href="#id17">May</textPath></text><path d="M 118.48025628344425 109.97397251340804 l 14.862899957552196 8.021650423699139 a37.88942481756669,37.88942481756669 0 0,0 -0.314705215261765,0.5712813780091182 l -14.722618332838922 -8.276302320106064" fill="#ff740a" stroke="none" /><path d="M 118.12598468904814 110.60418214915192 l 14.961219456019537 8.75271048755356 a38.3334367189576,38.3334367189576 0 0,0 -0.3380993133601309,0.5666738966277489 l -14.808339266961179 -9.008946478067413" fill="#ff7b0b" stroke="none" /><path d="M 117.35343817320211 111.8261652097733 l 11.002201243903594 7.4978715043629975 a34.31414696130745,34.31414696130745 0 0,0 -0.33683272029090755,0.48523265575042757 l -10.87150761645055 -7.686145422300445" fill="#ff3a05" stroke="none" /><path d="M 116.498646956653 112.99209946851258 l 13.247959133352175 10.432298070715126 a37.8624216598689,37.8624216598689 0 0,0 -0.40761977826298496,0.5085683477891906 l -13.066421443034336 -10.658794252082567" fill="#ff730a" stroke="none" /><path d="M 115.07121518719521 114.62390073753431 l 7.334618522009568 7.116926663264644 a31.219944911480347,31.219944911480347 0 0,0 -0.37755227121524576,0.382458457422776 l -7.211025625738786 -7.242125614668085" fill="#ff0601" stroke="none" /><path d="M 114.0293411484842 115.62618273729858 l 11.162871053597895 12.433446525410636 a37.70928731752194,37.70928731752194 0 0,0 -0.4867328901836643,0.429485184124332 l -10.947195810507642 -12.623754851307257" fill="#ff710a" stroke="none" /><path d="M 113.75828350139079 115.86535959552629 l 11.12091970733271 12.824084499492452 a37.974451342740466,37.974451342740466 0 0,0 -0.49752774154442886,0.42400393497800504 l -10.898526489211234 -13.013612824693404" fill="#ff750a" stroke="none" /><path d="M 113.20401910651253 116.32954008644616 l 11.573467032962526 14.313020325812063 a39.40672947620461,39.40672947620461 0 0,0 -0.5311323578454294,0.42196366757966486 l -11.325377182399745 -14.510117907396854" fill="#ff8b0c" stroke="none" /><path d="M 112.34349029814194 116.9893568818739 l 11.903500425036269 16.383762775340845 a41.2514445175519,41.2514445175519 0 0,0 -0.5780558480130228,0.4124274992226116 l -11.619717249174363 -16.586234536407677" fill="#ffa80f" stroke="none" /><path d="M 111.7513745106137 117.40417183066458 l 15.335131293456527 22.711833397536793 a48.40426295423793,48.40426295423793 0 0,0 -0.6945442436645589,0.46030605236083333 l -14.941912351052004 -22.972437470988947" fill="#eeff19" stroke="none" /><path d="M 111.45004920935366 117.60387380957326 l 9.428577299644815 14.495962589502575 a38.29251286804887,38.29251286804887 0 0,0 -0.5556393102974561,0.3546352969959111 l -9.177656187300428 -14.656112315322295" fill="#ff7a0b" stroke="none" /><path d="M 111.1453310114006 117.79835938074945 l 12.90226493122248 20.604067105466815 a45.3104097382589,45.3104097382589 0 0,0 -0.6645975551892103,0.4082500997719215 l -12.54568817610096 -20.823105672067115" fill="#ffe415" stroke="none" /><line stroke="#e1ed5e" stroke-width="0.3" x1="143.8653032363475" x2="146.44561519142675" y1="172.8068346515853" y2="177.08958963109032" /><path d="M 144.38136562736335 173.6633856474863 a86.0,86.0 0 0,1 -40.68145358897372,12.25698825130547" fill="none" id="id18" stroke="none" /><text fill="#e1ed5e" style="font-size:6.75px; font-family:Arial;" text-anchor="middle"><textPath startOffset="21.466115282336833" xlink:href="#id18">June</textPath></text><path d="M 110.8373102113329 117.98757091392108 l 10.732575010262215 17.813733326945588 a41.79704934346305,41.79704934346305 0 0,0 -0.6194564119951319,0.36598576700878976 l -10.4243507272387 -17.99583766624813" fill="#ffb010" stroke="none" /><path d="M 110.5260780823613 118.17145234162733 l 17.29645897844302 29.85934338947852 a55.507214909983055,55.507214909983055 0 0,0 -0.8308934024630085,0.47180295890424634 l -16.77991680905881 -30.152649514177398" fill="#8fff24" stroke="none" /><path d="M 109.89434966115114 118.52300852407294 l 6.473459113071986 12.118829679374754 a34.73942159213077,34.73942159213077 0 0,0 -0.5298739417584275,0.27720500293894307 l -6.263894268787063 -12.228464101258414" fill="#ff4106" stroke="none" /><path d="M 108.92500713936063 119.00905698771935 l 8.42313181825566 17.940130494928024 a40.81911783613886,40.81911783613886 0 0,0 -0.6385898377958369,0.2931452736784162 l -8.113073984692404 -18.082462838940515" fill="#ffa10e" stroke="none" /><path d="M 107.93186726928326 119.44442032107085 l 9.096102145021357 22.298461054199098 a45.082367815858476,45.082367815858476 0 0,0 -0.721057961498826,0.2869238438207507 l -8.710923107480665 -22.451731742425917" fill="#ffe115" stroke="none" /><path d="M 107.59598834532513 119.57807347666477 l 15.135033058658648 39.009379138467644 a62.84257265579406,62.84257265579406 0 0,0 -1.0118545342361922,0.3825968038973552 l -14.46130830366218 -39.26412419247163" fill="#37ff2e" stroke="none" /><path d="M 107.2578585660854 119.70592522655815 l 17.78632386358528 48.291925906211446 a72.46322399841813,72.46322399841813 0 0,0 -1.174181795255603,0.42101981639138897 l -16.952422507699943 -48.590933263642796" fill="#3cffa7" stroke="none" /><path d="M 106.2309692047433 120.05430185196036 l 3.9839114849257773 12.822172738291446 a34.42682629850807,34.42682629850807 0 0,0 -0.5674279110720153,0.17096137492386732 l -3.762608599413516 -12.888849482321039" fill="#ff3c05" stroke="none" /><path d="M 105.88484417918355 120.15858648285463 l 6.785385510470452 23.24339888491395 a45.21357157151587,45.21357157151587 0 0,0 -0.7489710632572396,0.21166670374623608 l -6.384283279108606 -23.35675438199871" fill="#ffe315" stroke="none" /><path d="M 105.18746579009965 120.34920634021253 l 11.193221487040644 43.90837122939656 a66.31261713117493,66.31261713117493 0 0,0 -1.1085155439990488,0.272446150665775 l -10.435752658298384 -44.09453863837636" fill="#33ff56" stroke="none" /><path d="M 104.83641907484287 120.43548508189849 l 14.509257224528598 61.306455245695496 a84.0,84.0 0 0,0 -1.4099194024285517,0.32089306568926235 l -13.451817672707184 -61.54712504496244" fill="#4dd2ff" stroke="none" /><path d="M 104.13013068566511 120.58985236759428 l 3.4544538423481 17.22141501998552 a38.56446374471753,38.56446374471753 0 0,0 -0.6519825502880994,0.12495400749426223 l -3.1575036774882963 -17.278326225828252" fill="#ff7e0b" stroke="none" /><path d="M 103.41894727170886 120.7198165907248 l 2.818747461132744 17.082430867981813 a38.31342778334262,38.31342778334262 0 0,0 -0.6516277307826196,0.10177085014710842 l -2.5242838667416074 -17.128420025476025" fill="#ff7a0b" stroke="none" /><path d="M 102.70371172650421 120.8252237178851 l 4.950420480999661 38.1304016266979 a59.45041210639994,59.45041210639994 0 0,0 -1.0159582187276746,0.12301839167350503 l -4.293334839220606 -38.20996554709676" fill="#5fff29" stroke="none" /><path d="M 101.62511606390274 120.93702456842531 l 1.2683294635778692 16.340399144178875 a37.38954861548241,37.38954861548241 0 0,0 -0.6420982661147402,0.044282855802661225 l -0.9868684366841988 -16.35981034449782" fill="#ff6c09" stroke="none" /><path d="M 100.90346689309514 120.98055641714683 l 0.8851656348321244 20.55555956952954 a41.57460928954825,41.57460928954825 0 0,0 -0.7152409630186536,0.024634344940297273 l -0.5312043201388185 -20.56775071289593" fill="#ffad10" stroke="none" /><line stroke="#e1ed5e" stroke-width="0.3" x1="102.19456741930631" x2="102.32365962044197" y1="184.97166512339345" y2="189.96999836594603" /><path d="M 102.22038585953345 185.97133177190398 a86.0,86.0 0 0,1 -42.740103519485714,-10.115201625700543" fill="none" id="id19" stroke="none" /><text fill="#e1ed5e" style="font-size:6.75px; font-family:Arial;" text-anchor="middle"><textPath startOffset="22.20632615414155" xlink:href="#id19">July</textPath></text><path d="M 100.18074693466247 120.99922214144158 l 0.3888685026241131 45.178835733303316 a66.18050925929386,66.18050925929386 0 0,0 -1.1392308745731061,0.0 l 0.388868502624082 -45.178835733303316" fill="#33ff54" stroke="none" /><path d="M 99.09653310690486 120.98055641714683 l -1.0671815224850874 24.78238252110174 a45.80534941951318,45.80534941951318 0 0,0 -0.7874417938539774,-0.040701746261570436 l 1.4936113847525538 -24.76034096807797" fill="#ffeb16" stroke="none" /><path d="M 98.37488393609728 120.93702456842531 l -1.6197348264401643 20.86769591955857 a41.93046282094939,41.93046282094939 0 0,0 -0.7191187830805689,-0.06204859449822412 l 1.978697927262275 -20.836723072781684" fill="#ffb210" stroke="none" /><path d="M 97.65516085044442 120.86867818915974 l -3.8673378574290567 34.41866330606846 a55.63525206895436,55.63525206895436 0 0,0 -0.9507602990081511,-0.11512383156611274 l 4.4592255794885975 -34.346993945776994" fill="#8eff24" stroke="none" /><path d="M 91.40352486487194 119.15986991738527 l -7.008078766130702 15.619643565438409 a38.11976732037073,38.11976732037073 0 0,0 -0.5963601694590963,-0.2737597041794534 l 7.275906931357218 -15.496696790924881" fill="#ff770b" stroke="none" /><path d="M 91.07499286063937 119.00905698771935 l -7.675359557609677 16.347476809109953 a39.05965510088656,39.05965510088656 0 0,0 -0.6061450852218409,-0.29098647628265506 l 7.95561731083176 -16.212936056327734" fill="#ff860c" stroke="none" /><path d="M 90.42595943632237 118.69057910512821 l -13.1570569106152 25.685394932572315 a49.859100114026056,49.859100114026056 0 0,0 -0.7604915884935612,-0.39785325604766114 l 13.597239401635257 -25.455112257579938" fill="#daff1c" stroke="none" /><path d="M 90.10565033884886 118.52300852407294 l -10.026805201395714 18.77097581702643 a42.281126748133595,42.281126748133595 0 0,0 -0.6390031008737262,-0.3484354398997491 l 10.34843111413808 -18.595599725366913" fill="#ffb711" stroke="none" /><line stroke="#e1ed5e" stroke-width="0.3" x1="58.666819895761336" x2="56.23545636021788" y1="174.27360380694188" y2="178.64263932499728" /><path d="M 58.180547188652646 175.14741091055294 a86.0,86.0 0 0,1 -31.652253787137756,-30.449443065178592" fill="none" id="id20" stroke="none" /><text fill="#e1ed5e" style="font-size:6.75px; font-family:Arial;" text-anchor="middle"><textPath startOffset="22.20632615414155" xlink:href="#id20">August</textPath></text><path d="M 89.4739219176387 118.17145234162733 l -12.008065573397163 20.729847296855056 a44.95663181179556,44.95663181179556 0 0,0 -0.6662832490561094,-0.39365188773415266 l 12.363116693481654 -20.520076836827155" fill="#ffdf14" stroke="none" /><path d="M 89.1626897886671 117.98757091392108 l -8.877475358625638 14.734672574277608 a38.20232962752935,38.20232962752935 0 0,0 -0.5603386731581551,-0.34420577902630967 l 9.129793231716102 -14.57967832842292" fill="#ff790b" stroke="none" /><path d="M 88.8546689885994 117.79835938074946 l -6.994074969206585 11.169076962407742 a34.1782155418353,34.1782155418353 0 0,0 -0.49593924995999455,-0.316531893877951 l 7.185296021213503 -11.047030639705987" fill="#ff3805" stroke="none" /><path d="M 88.24862548938628 117.40417183066458 l -9.952151403889475 14.73946328249872 a38.784743333038776,38.784743333038776 0 0,0 -0.5500842277816121,-0.37835294780397527 l 10.204392516293979 -14.565969545329644" fill="#ff820b" stroke="none" /><path d="M 87.95078237400918 117.19931262002967 l -12.625991322689659 18.022611810770105 a43.00523104542064,43.00523104542064 0 0,0 -0.6026316312481875,-0.4299616680333899 l 12.934350281786733 -17.802605880892493" fill="#ffc212" stroke="none" /><path d="M 84.43433777217949 114.09645910891817 l -7.596542341053851 6.879524103281598 a31.24867344718605,31.24867344718605 0 0,0 -0.35763533920286295,-0.4018070948606203 l 7.713836529905053 -6.747742838680114" fill="#ff0701" stroke="none" /><path d="M 83.95833913139862 113.55231037782056 l -21.7140667680154 18.344470364714827 a49.42569767952462,49.42569767952462 0 0,0 -0.5434567286788091,-0.654628638993251 l 22.02661949658774 -17.967980468607816" fill="#e0ff1b" stroke="none" /><path d="M 83.72743513129214 113.27417163493432 l -13.08314865795136 10.672439299656478 a37.8840083928819,37.8840083928819 0 0,0 -0.40785217700923393,-0.5088583009580758 l 13.264918747015455 -10.445653165120142" fill="#ff740a" stroke="none" /><line stroke="#e1ed5e" stroke-width="0.3" x1="26.63291911575756" x2="22.317208475507996" y1="142.92168965132927" y2="145.44649492493687" /><path d="M 25.769776987707644 143.4266507060508 a86.0,86.0 0 0,1 -11.730757126820373,-40.83630448921669" fill="none" id="id21" stroke="none" /><text fill="#e1ed5e" style="font-size:6.75px; font-family:Arial;" text-anchor="middle"><textPath startOffset="21.46611528233685" xlink:href="#id21">September</textPath></text><path d="M 81.87401531095188 110.60418214915194 l -21.307984602973693 12.465736556523803 a45.68653065412833,45.68653065412833 0 0,0 -0.39126815908896234,-0.6822090154628927 l 21.519404758215032 -12.097107695202602" fill="#ffea15" stroke="none" /><path d="M 81.51974371655577 109.97397251340807 l -21.61034910807168 11.66331379301025 a45.55687433707632,45.55687433707632 0 0,0 -0.3665104596363381,-0.693299666558942 l 21.807912075932904 -11.289599111365183" fill="#ffe815" stroke="none" /><path d="M 81.35079622478065 109.6543875284942 l -17.48490275132793 9.05164794668928 a40.68893483086882,40.68893483086882 0 0,0 -0.31663999309716606,-0.6247607460246464 l 17.638121414211366 -8.74933298896195" fill="#ff9f0e" stroke="none" /><path d="M 81.18737489456691 109.33194174019688 l -15.955282962188623 7.914566426378189 a38.81042998136371,38.81042998136371 0 0,0 -0.2917190467590826,-0.6010276406512146 l 16.089155265562425 -7.63874982976169" fill="#ff820c" stroke="none" /><path d="M 80.87730276802145 108.67885076344099 l -25.1651870067636 11.421239368918682 a48.63568971108775,48.63568971108775 0 0,0 -0.33942828225728916,-0.7653211700406678 l 25.358056373752166 -10.986369862385319" fill="#ebff1a" stroke="none" /><path d="M 80.58989483394504 108.01547362559985 l -13.119339445736012 5.417679008586315 a35.19395340743803,35.19395340743803 0 0,0 -0.2264100523472465,-0.5619311821726107 l 13.210652112340645 -5.191048458570899" fill="#ff4806" stroke="none" /><path d="M 80.45479744820244 107.68017299344265 l -14.415346561542943 5.664426094315218 a36.48831622441081,36.48831622441081 0 0,0 -0.2246737150389186,-0.586552173490496 l 14.51071455617537 -5.415450353991564" fill="#ff5d08" stroke="none" /><path d="M 80.20201598880116 107.00284435728193 l -20.895702389639382 7.391123838061325 a43.164365317913784,43.164365317913784 0 0,0 -0.24173929228108423,-0.7026075390232653 l 21.019832512863694 -7.030343595948762" fill="#ffc512" stroke="none" /><path d="M 79.97269907076064 106.31721596034903 l -19.003207339491077 5.9941858928972644 a40.92616756193463,40.92616756193463 0 0,0 -0.20613775390384476,-0.6736701068083867 l 19.10357186590105 -5.66618881353683" fill="#ffa30f" stroke="none" /><path d="M 79.76711848015287 105.62410040840567 l -33.21237764579565 9.231989348556919 a55.47160652216277,55.47160652216277 0 0,0 -0.2478046722026779,-0.9221733708669493 l 33.3663703943401 -8.65892504451443" fill="#90ff24" stroke="none" /><path d="M 79.58551787078972 104.9243191809786 l -9.773575767506363 2.357552168801504 a31.05389653377278,31.05389653377278 0 0,0 -0.12087275849150865,-0.5207166800474221 l 9.812709091928427 -2.1889668314055077" fill="#ff0400" stroke="none" /><path d="M 79.4281124754447 104.21870165774334 l -16.786209965562673 3.442368218493256 a38.13554037547833,38.13554037547833 0 0,0 -0.12633771904434313,-0.6441933075736528 l 16.842977617582683 -3.152911183851648" fill="#ff780b" stroke="none" /><path d="M 79.35854240842038 103.8639653848113 l -14.871353257478434 2.783834133672726 a36.12966887253372,36.12966887253372 0 0,0 -0.10916933462234939,-0.6122796044739345 l 14.917069034439972 -2.5274357784655774" fill="#ff5808" stroke="none" /><path d="M 79.23777060512086 103.15116336523772 l -18.028054677593992 2.736187158232072 a39.23451330919454,39.23451330919454 0 0,0 -0.09559386220794357,-0.6685832496352621 l 18.072482590818538 -2.4254584366164096" fill="#ff890c" stroke="none" /><path d="M 79.1416061653843 102.43462659150553 l -16.936831804527298 1.9768953167778036 a38.05181476172977,38.05181476172977 0 0,0 -0.07033732727422141,-0.6512362944916488 l 16.96835143330257 -1.6850627004013727" fill="#ff760a" stroke="none" /><path d="M 79.10278846688536 102.07522291339032 l -33.63833233423666 3.3404953535368525 a54.803791376642245,54.803791376642245 0 0,0 -0.08514265805761383,-0.9395421368425144 l 33.690849588571346 -2.760971828145772" fill="#98ff23" stroke="none" /><path d="M 79.04373962182676 101.35467743843564 l -13.549922692881795 0.8759088803702941 a34.578203907357725,34.578203907357725 0 0,0 -0.03328341336774818,-0.5942977042136137 l 13.562992457137076 -0.6425394598212428" fill="#ff3e05" stroke="none" /><path d="M 79.0235259727143 100.99374915477108 l -12.271509987304574 0.5813561736727565 a33.285272987165705,33.285272987165705 0 0,0 -0.02218680139456467,-0.5725427591578401 l 12.27969892155034 -0.3700361675009195" fill="#ff2904" stroke="none" /><path d="M 79.0095281055655 100.63252640178507 l -24.898058748290463 0.7502775350022148 a45.90936060626311,45.90936060626311 0 0,0 -0.0170038156650906,-0.7901004987460454 l 24.90728462664056 -0.3215872204660406" fill="#ffed16" stroke="none" /><line stroke="#e1ed5e" stroke-width="0.3" x1="15.007084014347285" x2="10.007500721073583" y1="101.09737516637583" y2="101.16192664675087" /><path d="M 14.007167355692545 101.11028546245083 a86.0,86.0 0 0,1 10.666146001902534,-42.60595125391555" fill="none" id="id22" stroke="none" /><text fill="#e1ed5e" style="font-size:6.75px; font-family:Arial;" text-anchor="middle"><textPath startOffset="22.20632615414155" xlink:href="#id22">October</textPath></text><path d="M 79.00019446554 99.90962569577889 l -40.578626941283716 -0.1746332922011615 a61.57900271355398,61.57900271355398 0 0,0 0.013685179398206246,-1.0599322259878845 l 40.56960875476779 0.8731017762495179" fill="#46ff2d" stroke="none" /><path d="M 79.16333360222342 97.38593545837743 l -16.81247236871465 -2.109209171806663 a37.94426128455375,37.94426128455375 0 0,0 0.08688151882648955,-0.6473682305791273 l 16.77367485083033 2.39829574445045" fill="#ff750a" stroke="none" /><path d="M 79.21141760316559 97.0276538004421 l -19.736210166285975 -2.8218782869181624 a40.93692525927682,40.93692525927682 0 0,0 0.10574223504912059,-0.6967092106478153 l 19.684712037797553 3.16118660995807" fill="#ffa30f" stroke="none" /><line stroke="#e1ed5e" stroke-width="0.3" x1="26.266209847984243" x2="21.928928074336255" y1="57.711370442889674" y2="55.22380399835377" /><path d="M 25.398753493254645 57.213857153982495 a86.0,86.0 0 0,1 29.58750427330803,-30.492523968695096" fill="none" id="id23" stroke="none" /><text fill="#e1ed5e" style="font-size:6.75px; font-family:Arial;" text-anchor="middle"><textPath startOffset="21.46611528233685" xlink:href="#id23">November</textPath></text><line stroke="#e1ed5e" stroke-width="0.3" x1="56.762969772571076" x2="54.21961505331055" y1="26.818313649435495" y2="22.513508569990535" /><path d="M 56.25429882871897 25.957352633546506 a86.0,86.0 0 0,1 42.265352541879196,-11.944610805530505" fill="none" id="id24" stroke="none" /><text fill="#e1ed5e" style="font-size:6.75px; font-family:Arial;" text-anchor="middle"><textPath startOffset="22.20632615414155" xlink:href="#id24">December</textPath></text></svg>