<?xml version="1.0" encoding="utf-8" ?>
<svg baseProfile="full" height="200mm" version="1.1" viewBox="0,0,200,200" width="200mm" xmlns="http://www.w3.org/2000/svg" xmlns:ev="http://www.w3.org/2001/xml-events" xmlns:xlink="http://www.w3.org/1999/xlink"><defs /><rect fill="#1a1a1a" height="200" width="200" x="0" y="0" /><text alignment-baseline="middle" fill="#e1ed5e" style="dominant-baseline: central; font-size:9.0px; font-family:Arial;" text-anchor="middle" x="100.0" y="100.0">2024</text><line stroke="#e1ed5e" stroke-width="0.3" x1="100.0" x2="100.0" y1="15.0" y2="10.0" /><path d="M 100.0 14.0 a86.0,86.0 0 0,1 42.35913384403234,11.155469271406648" fill="none" id="id37" stroke="none" /><text fill="#e1ed5e" style="font-size:6.75px; font-family:Arial;" text-anchor="middle"><textPath startOffset="22.145653131862478" xlink:href="#id37">January</textPath></text><path d="M 100.72087961077811 79.0123766808444 l 1.2311706025263158 -35.84418876759369 a56.865326562843606,56.865326562843606 0 0,0 0.9753059877598694,0.0418838355977887 l -1.8463023508870215 35.81777236357008" fill="#c7ff1e" stroke="none" /><path d="M 101.08105385017728 79.02784411241856 l 1.7573797770369501 -34.09269818673527 a55.137962055936505,55.137962055936505 0 0,0 0.9448431932254637,0.05683942025181994 l -2.3423673223948764 34.057506788658756" fill="#e3ff1b" stroke="none" /><path d="M 101.80034050326958 79.07731436759882 l 2.896323563685447 -33.6596701027686 a54.784050698706544,54.784050698706544 0 0,0 0.9362866531096841,0.08866731950304998 l -3.473709780180144 33.60499102776037" fill="#e9ff1a" stroke="none" /><path d="M 102.51750503828377 79.15144685158666 l 3.7838069018158658 -31.335349123916714 a52.56297355110854,52.56297355110854 0 0,0 0.8948775615185254,0.115859816411503 l -4.321162285225183 31.265777711304814" fill="#ffef16" stroke="none" /><path d="M 103.23170211078529 79.25015418208739 l 5.181603180448261 -33.269609449795645 a54.67069830671118,54.67069830671118 0 0,0 0.92607606245217,0.152385463663233 l -5.7519567459535015 33.17575798763674" fill="#ebff1a" stroke="none" /><path d="M 103.94208987418118 79.37332000966035 l 3.646517852967752 -19.08012227850324 a40.4254513104496,40.4254513104496 0 0,0 0.6805018624876723,0.13611943106371918 l -3.9735162009863814 19.01471345077666" fill="#ff0a01" stroke="none" /><path d="M 106.72888874123014 80.10723608172694 l 10.565099226386971 -31.23383856770732 a53.97232162491753,53.97232162491753 0 0,0 0.875107808695917,0.3044079224365425 l -11.099712807127908 31.047872212702188" fill="#f7ff19" stroke="none" /><line stroke="#e1ed5e" stroke-width="0.3" x1="143.13028292997686" x2="145.6673583964461" y1="26.7553504044142" y2="22.446841604673864" /><path d="M 143.63769802327073 25.89364864446614 a86.0,86.0 0 0,1 29.32050498858742,28.57503671076993" fill="none" id="id38" stroke="none" /><text fill="#e1ed5e" style="font-size:6.75px; font-family:Arial;" text-anchor="middle"><textPath startOffset="20.669276256404974" xlink:href="#id38">February</textPath></text><path d="M 111.8722381534696 82.67804972795209 l 11.854674617687497 -17.296324548449196 a41.968933048119794,41.968933048119794 0 0,0 0.5907725060582852,0.4124050909336698 l -12.149842214919541 17.0902746417104" fill="#ff2904" stroke="none" /><path d="M 112.7482090630111 83.31218511350987 l 19.56347130603926 -25.609211935471073 a53.22671477979249,53.22671477979249 0 0,0 0.7213235098126751,0.5609055241165803 l -20.000204760487165 25.2696053597337" fill="#fffb17" stroke="none" /><path d="M 114.65682725009322 84.96080404539774 l 22.037543781202103 -22.612461321157827 a52.57493852581915,52.57493852581915 0 0,0 0.6409337648228676,0.6354557313739179 l -22.422469466154933 22.23082557955525" fill="#ffef16" stroke="none" /><path d="M 117.62189284568427 88.57770195909679 l 23.564494942152255 -15.274220923352107 a49.08179564582875,49.08179564582875 0 0,0 0.4522123390810138,0.7109529075084289 l -23.82322497285916 14.867454341165008" fill="#ffb110" stroke="none" /><line stroke="#e1ed5e" stroke-width="0.3" x1="172.87174338648825" x2="177.1583165268699" y1="56.24261187166439" y2="53.66864786411523" /><path d="M 173.72905801456457 55.72781907015455 a86.0,86.0 0 0,1 12.242430191666344,42.057860355516425" fill="none" id="id39" stroke="none" /><text fill="#e1ed5e" style="font-size:6.75px; font-family:Arial;" text-anchor="middle"><textPath startOffset="22.145653131862474" xlink:href="#id39">March</textPath></text><path d="M 119.0197475246899 91.09779779509293 l 29.953222069355046 -14.019620355303916 a54.07181983566901,54.07181983566901 0 0,0 0.38626728518614917,0.8440637282778517 l -30.189473819396248 13.50336764481138" fill="#f5ff19" stroke="none" /><path d="M 119.31412917781788 91.75594674310238 l 29.09166333557748 -12.417501180725395 a52.63098498630575,52.63098498630575 0 0,0 0.34755035210423724,0.8339943237869879 l -29.3005395322182 11.91627434749713" fill="#fff016" stroke="none" /><path d="M 119.58574465831526 92.42381321644754 l 30.901552431556727 -11.953384321479838 a54.13290418024429,54.13290418024429 0 0,0 0.3278116384638131,0.869559317390794 l -31.10219475383498 11.421156723894885" fill="#f4ff19" stroke="none" /><path d="M 120.05942366710727 93.78553927170692 l 24.099700619709285 -7.466148856030481 a46.22972351612323,46.22972351612323 0 0,0 0.22833890706224524,0.7600659584054758 l -24.22431584677516 7.051345294034282" fill="#ff7c0b" stroke="none" /><path d="M 120.51834098615036 95.52812308129327 l 32.420340603983796 -7.065862339524692 a54.18139381459787,54.18139381459787 0 0,0 0.19026000050547331,0.9104629773142063 l -32.53685831531364 6.5082829109250815" fill="#f3ff19" stroke="none" /><path d="M 120.65975698304385 96.23510406497455 l 32.85071112210571 -5.986493881211627 a54.39172547530037,54.39172547530037 0 0,0 0.159510682871841,0.9200152304903418 l -32.94863662246978 5.4216856178006925" fill="#f0ff19" stroke="none" /><path d="M 120.82617615685814 97.30363454192243 l 32.851158059706464 -4.253240113926042 a54.12534735411127,54.12534735411127 0 0,0 0.11138974252932013,0.922466859845383 l -32.91932988849545 3.688679577157246" fill="#f4ff19" stroke="none" /><path d="M 120.9064616781168 98.02013634271609 l 33.15647544343065 -3.1399526971504286 a54.30482197477059,54.30482197477059 0 0,0 0.07992215796591794,0.9288166228261541 l -33.20549122409431 2.5703150269486126" fill="#f1ff19" stroke="none" /><path d="M 120.96210409425399 98.7389718711861 l 32.96373739137601 -1.9830165852842256 a54.023330201315446,54.023330201315446 0 0,0 0.047742244799959456,0.9261867946760145 l -32.992921225632536 1.4168579972314805" fill="#f6ff19" stroke="none" /><line stroke="#e1ed5e" stroke-width="0.3" x1="184.99686870605535" x2="189.99668451229388" y1="99.2704041080226" y2="99.22748670261217" /><path d="M 185.99683186730306 99.26182062694052 a86.0,86.0 0 0,1 -10.086455211305974,41.156179273409016" fill="none" id="id40" stroke="none" /><text fill="#e1ed5e" style="font-size:6.75px; font-family:Arial;" text-anchor="middle"><textPath startOffset="21.40746469413373" xlink:href="#id40">April</textPath></text><path d="M 120.99303781780057 100.54070618675476 l 32.82478292804294 0.845449970705296 a53.83566901901201,53.83566901901201 0 0,0 -0.031725393087832614,0.9236502043119055 l -32.805432847958265 -1.4088064395813122" fill="#f9ff18" stroke="none" /><path d="M 120.592083275326 104.11899336999214 l 30.907885013691022 6.182442628542502 a52.52015153635473,52.52015153635473 0 0,0 -0.18442648581628898,0.88254749777033 l -30.79720081705037 -6.712106577598241" fill="#ffee16" stroke="none" /><path d="M 119.94978838288452 106.5578916946017 l 29.94801402752441 9.844507053990142 a52.52455968493233,52.52455968493233 0 0,0 -0.28892154138581483,0.8541451991136384 l -29.774607064566233 -10.35715392757794" fill="#ffef16" stroke="none" /><path d="M 119.31412917781788 108.2440532568976 l 30.627650338423482 13.073122696807411 a54.301043561704084,54.301043561704084 0 0,0 -0.37329670768718376,0.8541759209135724 l -30.398719748719333 -13.596960687496829" fill="#f1ff19" stroke="none" /><path d="M 118.5362547648365 109.86951160357373 l 32.008863196450775 17.04291674572058 a57.26331940584954,57.26331940584954 0 0,0 -0.4694355586752002,0.8637085543334664 l -31.71158228816024 -17.58988013352865" fill="#c0ff1e" stroke="none" /><line stroke="#e1ed5e" stroke-width="0.3" x1="174.33088141563837" x2="178.70328620479359" y1="141.23008692659167" y2="143.65538615756765" /><path d="M 175.20536237346943 141.71514677278685 a86.0,86.0 0 0,1 -30.301960400862466,31.631185727798858" fill="none" id="id41" stroke="none" /><text fill="#e1ed5e" style="font-size:6.75px; font-family:Arial;" text-anchor="middle"><textPath startOffset="22.145653131862474" xlink:href="#id41">May</textPath></text><path d="M 116.57777611688842 112.89097897827486 l 25.08291332901347 19.50462511728582 a52.773934947322125,52.773934947322125 0 0,0 -0.5622524207073528,0.7103875662262807 l -24.744394477664553 -19.932332627426785" fill="#fff316" stroke="none" /><path d="M 115.6541949942343 113.99807769240083 l 24.077466927368654 21.530219395481822 a53.29976409907839,53.29976409907839 0 0,0 -0.6157450150010404,0.6768116341364004 l -23.704324211525734 -21.940368605175895" fill="#fffc17" stroke="none" /><path d="M 115.16444852881244 114.52719865689866 l 23.957651974929167 22.950888647969315 a54.176985666020265,54.176985666020265 0 0,0 -0.649125936544487,0.6660603957684712 l -23.560139237233873 -23.358771735805526" fill="#f3ff19" stroke="none" /><path d="M 113.59037401385872 116.0094264158162 l 21.93951124513916 25.84468908065759 a54.90118150376841,54.90118150376841 0 0,0 -0.7237169583371116,0.6037504265303953 l -21.492619952640155 -26.21750169109986" fill="#e7ff1a" stroke="none" /><path d="M 112.45986205192187 116.90419585922612 l 26.18013277185767 35.518378145106716 a65.1243077907279,65.1243077907279 0 0,0 -0.9055968838639568,0.655582306277247 l -25.566554877619748 -35.96256122275704" fill="#4aff2c" stroke="none" /><path d="M 111.5731344415666 117.5232005979908 l 11.199941865363662 16.958139472372363 a41.32282441374622,41.32282441374622 0 0,0 -0.5952737190894782,0.3858492328207622 l -10.907182514017176 -17.14790254689702" fill="#ff1c02" stroke="none" /><path d="M 110.96478420261333 117.91015095944535 l 19.743779523029996 32.249980048234185 a58.81372823414166,58.81372823414166 0 0,0 -0.8655903267574393,0.5197621207877029 l -19.18725643971512 -32.584156169557815" fill="#a8ff21" stroke="none" /><line stroke="#e1ed5e" stroke-width="0.3" x1="143.1302829299769" x2="145.66735839644613" y1="173.24464959558577" y2="177.55315839532614" /><path d="M 143.63769802327073 174.10635135553383 a86.0,86.0 0 0,1 -40.68552437913181,11.842963189579606" fill="none" id="id42" stroke="none" /><text fill="#e1ed5e" style="font-size:6.75px; font-family:Arial;" text-anchor="middle"><textPath startOffset="21.407464694133747" xlink:href="#id42">June</textPath></text><path d="M 109.3889696526874 118.78422872680471 l 14.873767681938672 29.757498905848717 a54.267667579616564,54.267667579616564 0 0,0 -0.8368584734339002,0.4093494148694069 l -14.360748959242702 -30.00844207081535" fill="#f2ff19" stroke="none" /><path d="M 108.73861861582097 119.09545874513695 l 7.879274241033912 17.217636199259648 a39.93488734731413,39.93488734731413 0 0,0 -0.6258112468795946,0.27991741073153903 l -7.58254959129869 -17.350357360901036" fill="#ff0000" stroke="none" /><path d="M 107.74402155503746 119.51999308798841 l 11.632055727349313 29.320379054117442 a52.543451750264886,52.543451750264886 0 0,0 -0.8412650429891413,0.3254193910596628 l -11.12701842186664 -29.51573833331515" fill="#ffef16" stroke="none" /><path d="M 106.38641147887787 120.00534299687104 l 10.161238887056511 31.829936088682253 a54.41250674716619,54.41250674716619 0 0,0 -0.8922598279677438,0.27642437551341315 l -9.613338426217142 -31.99967705200231" fill="#efff19" stroke="none" /><path d="M 104.29559338865022 120.5559693870025 l 6.462583324261251 30.925800688088486 a52.593830591151715,52.593830591151715 0 0,0 -0.8853382834934052,0.17709245204340907 l -5.930748555236888 -31.032182536794757" fill="#fff016" stroke="none" /><path d="M 103.2317021107853 120.74984581791261 l 5.610140796666239 36.021128358058455 a57.45538873673057,57.45538873673057 0 0,0 -0.9758521290448929,0.14341665765594747 l -4.99096356201366 -36.11212608901329" fill="#bdff1f" stroke="none" /><path d="M 102.51750503828377 120.84855314841334 l 6.086130460497411 50.401890937369906 a71.76801743267828,71.76801743267828 0 0,0 -1.224376383781743,0.13719392760749177 l -5.220018175114868 -50.49894062548437" fill="#38ff7d" stroke="none" /><path d="M 101.44090949804482 120.95050786540614 l 4.322728494134449 62.8515235962184 a84.0,84.0 0 0,0 -1.4394225914701395,0.08659208870123303 l -3.2431615505318443 -62.916467662744324" fill="#4dd2ff" stroke="none" /><line stroke="#e1ed5e" stroke-width="0.3" x1="101.45913802915013" x2="101.54496967792366" y1="184.9874750549273" y2="189.98673829345242" /><path d="M 101.47630435890484 185.9873277026323 a86.0,86.0 0 0,1 -42.54439059252881,-10.42667462771756" fill="none" id="id43" stroke="none" /><text fill="#e1ed5e" style="font-size:6.75px; font-family:Arial;" text-anchor="middle"><textPath startOffset="22.145653131862474" xlink:href="#id43">July</textPath></text><path d="M 100.36049292484886 120.99690560180557 l 0.8321836582972059 48.47052608302296 a69.47766937886088,69.47766937886088 0 0,0 -1.1926765831460522,0.0102376940323568 l -5.936802263494564e-15 -48.47766937886088" fill="#34ff58" stroke="none" /><path d="M 99.27912038922189 120.98762331915562 l -1.7378154748141352 50.59460142620858 a71.62443773615081,71.62443773615081 0 0,0 -1.2284417801909857,-0.05275457570106729 l 2.60608301560596 -50.557314282081684" fill="#37ff7b" stroke="none" /><path d="M 98.55909050195518 120.95050786540614 l -2.1627901485916547 31.446494093331957 a52.520781271865815,52.520781271865815 0 0,0 -0.8989332003684135,-0.06958311495941301 l 2.7022923437353046 -31.40473321137749" fill="#ffee16" stroke="none" /><path d="M 96.05791012581884 120.62667999033965 l -8.28165141587064 43.333099700622476 a65.11738070010594,65.11738070010594 0 0,0 -1.0961534728812385,-0.2192613941446967 l 9.024301374282835 -43.18454890981492" fill="#4aff2c" stroke="none" /><path d="M 89.97174638481275 118.45085714620012 l -20.01210071759459 36.82001131049496 a62.907009056196394,62.907009056196394 0 0,0 -0.9443714386039334,-0.5238269177370284 l 20.641216344354625 -36.471051477324785" fill="#6aff28" stroke="none" /><line stroke="#e1ed5e" stroke-width="0.3" x1="58.13341422392154" x2="55.67067388415222" y1="173.97424548756322" y2="178.32567169271397" /><path d="M 57.64086615596768 174.84453072859336 a86.0,86.0 0 0,1 -31.369924170532247,-30.572349798747897" fill="none" id="id44" stroke="none" /><text fill="#e1ed5e" style="font-size:6.75px; font-family:Arial;" text-anchor="middle"><textPath startOffset="22.145653131862474" xlink:href="#id44">August</textPath></text><path d="M 84.58840730492382 114.26474011684316 l -23.154361336718935 21.4313311787237 a52.55037884088683,52.55037884088683 0 0,0 -0.6070877489728274,-0.6672957822415994 l 23.518846786533643 -21.030697820924424" fill="#ffef16" stroke="none" /><path d="M 84.1078160697243 113.72728997021213 l -25.91371804020328 22.383652448579234 a55.242498150776676,55.242498150776676 0 0,0 -0.6137321497154524,-0.7229749291572618 l 26.294144753425844 -21.935510736972418" fill="#e1ff1b" stroke="none" /><path d="M 82.98947788004972 112.3143062007846 l -26.97518334541125 19.527952475257134 a54.30167329721517,54.30167329721517 0 0,0 -0.5401333179212884,-0.7597651544048682 l 27.306431761862502 -19.062010094142764" fill="#f1ff19" stroke="none" /><path d="M 82.18462484594161 111.11811171558189 l -26.797321656731224 16.723510635140872 a52.58753323604086,52.58753323604086 0 0,0 -0.47136468691852534,-0.7699387916499443 l 27.080454308105153 -16.261034727366372" fill="#fff016" stroke="none" /><line stroke="#e1ed5e" stroke-width="0.3" x1="26.387840678322732" x2="22.057713659400548" y1="142.50000000000003" y2="145.00000000000006" /><path d="M 25.521815274538298 143.00000000000003 a86.0,86.0 0 0,1 -11.493303480769221,-40.785679425670985" fill="none" id="id45" stroke="none" /><text fill="#e1ed5e" style="font-size:6.75px; font-family:Arial;" text-anchor="middle"><textPath startOffset="21.40746469413373" xlink:href="#id45">September</textPath></text><line stroke="#e1ed5e" stroke-width="0.3" x1="15.003131293944662" x2="10.003315487706104" y1="100.72959589197737" y2="100.7725132973878" /><path d="M 14.003168132696942 100.73817937305945 a86.0,86.0 0 0,1 10.791469493833604,-42.45332614584628" fill="none" id="id46" stroke="none" /><text fill="#e1ed5e" style="font-size:6.75px; font-family:Arial;" text-anchor="middle"><textPath startOffset="22.145653131862435" xlink:href="#id46">October</textPath></text><line stroke="#e1ed5e" stroke-width="0.3" x1="26.387840678322718" x2="22.05771365940052" y1="57.49999999999999" y2="54.99999999999999" /><path d="M 25.521815274538284 56.99999999999999 a86.0,86.0 0 0,1 29.574782752854787,-30.34633250058573" fill="none" id="id47" stroke="none" /><text fill="#e1ed5e" style="font-size:6.75px; font-family:Arial;" text-anchor="middle"><textPath startOffset="21.40746469413373" xlink:href="#id47">November</textPath></text><line stroke="#e1ed5e" stroke-width="0.3" x1="56.869717070023135" x2="54.33264160355391" y1="26.7553504044142" y2="22.446841604673864" /><path d="M 56.362301976729285 25.89364864446614 a86.0,86.0 0 0,1 42.16139366436587,-11.88097634709845" fill="none" id="id48" stroke="none" /><text fill="#e1ed5e" style="font-size:6.75px; font-family:Arial;" text-anchor="middle"><textPath startOffset="22.145653131862474" xlink:href="#id48">December</textPath></text></svg>