<?xml version="1.0" encoding="utf-8" ?>
<svg baseProfile="full" height="200mm" version="1.1" viewBox="0,0,200,200" width="200mm" xmlns="http://www.w3.org/2000/svg" xmlns:ev="http://www.w3.org/2001/xml-events" xmlns:xlink="http://www.w3.org/1999/xlink"><defs /><rect fill="#1a1a1a" height="200" width="200" x="0" y="0" /><text alignment-baseline="middle" fill="#e1ed5e" style="dominant-baseline: central; font-size:9.0px; font-family:Arial;" text-anchor="middle" x="100.0" y="100.0">2024</text><line stroke="#e1ed5e" stroke-width="0.3" x1="100.0" x2="100.0" y1="15.0" y2="10.0" /><path d="M 100.0 14.0 a86.0,86.0 0 0,1 42.35913384403234,11.155469271406648" fill="none" id="id37" stroke="none" /><text fill="#e1ed5e" style="font-size:6.75px; font-family:Arial;" text-anchor="middle"><textPath startOffset="22.145653131862478" xlink:href="#id37">January</textPath></text><path d="M 100.72087961077811 79.0123766808444 l 1.5278073062831836 -44.48044273844065 a65.50667344761716,65.50667344761716 0 0,0 1.1235150611697575,0.048248570914402704 l -2.291148128053777 44.44766159910042" fill="#63ff29" stroke="none" /><path d="M 101.08105385017728 79.02784411241856 l 2.1808006605761814 -42.30695020959798 a63.36311989878191,63.36311989878191 0 0,0 1.085789360099268,0.06531839165074031 l -2.906734372807912 42.26327984012254" fill="#86ff25" stroke="none" /><path d="M 101.80034050326958 79.07731436759882 l 3.5941601374162038 -41.769588881157766 a62.92393758217768,62.92393758217768 0 0,0 1.0754013653227505,0.10184162738664833 l -4.310661066123967 41.70173549826593" fill="#8eff24" stroke="none" /><path d="M 102.51750503828377 79.15144685158666 l 4.695472600057839 -38.88524891531513 a60.16771688704756,60.16771688704756 0 0,0 1.0243472949197827,0.13262226547465944 l -5.3622977168684125 38.79891505364008" fill="#beff1f" stroke="none" /><path d="M 103.23170211078529 79.25015418208739 l 6.430052164261145 -41.28554750274698 a62.783274206752836,62.783274206752836 0 0,0 1.0634963365395178,0.17499791746975885 l -7.137826003853733 41.169083586781554" fill="#90ff24" stroke="none" /><path d="M 103.94208987418118 79.37332000966035 l 4.525105299642759 -23.67726305522367 a45.10579523183408,45.10579523183408 0 0,0 0.7592884351130644,0.15187895213545327 l -4.930890220286781 23.596094706425358" fill="#ff0e01" stroke="none" /><path d="M 106.72888874123014 80.10723608172694 l 13.11064100828854 -38.75928053276658 a61.916631521496434,61.916631521496434 0 0,0 1.0039169355945243,0.34921442321328844 l -13.774063715928083 38.5285076769847" fill="#9fff22" stroke="none" /><line stroke="#e1ed5e" stroke-width="0.3" x1="143.13028292997686" x2="145.6673583964461" y1="26.7553504044142" y2="22.446841604673864" /><path d="M 143.63769802327073 25.89364864446614 a86.0,86.0 0 0,1 29.32050498858742,28.57503671076993" fill="none" id="id38" stroke="none" /><text fill="#e1ed5e" style="font-size:6.75px; font-family:Arial;" text-anchor="middle"><textPath startOffset="20.669276256404974" xlink:href="#id38">February</textPath></text><path d="M 111.8722381534696 82.67804972795209 l 14.710925080040344 -21.463679333101222 a47.021161527202366,47.021161527202366 0 0,0 0.6618898174358345,0.46205049752393973 l -15.077209988649939 21.207984019772155" fill="#ff3905" stroke="none" /><path d="M 112.7482090630111 83.31218511350987 l 24.277069592383583 -31.77946340083352 a60.99137909647969,60.99137909647969 0 0,0 0.8265495216114798,0.6427299073451731 l -24.81902905863029 31.358032441867554" fill="#afff20" stroke="none" /><path d="M 114.65682725009322 84.96080404539774 l 27.347241992594967 -28.06067944492882 a60.182564687786844,60.182564687786844 0 0,0 0.7336772774940301,0.727406569212719 l -27.82491119021896 27.587092865487442" fill="#beff1f" stroke="none" /><path d="M 117.62189284568427 88.57770195909679 l 29.24209485478176 -18.95437259190245 a55.84778833511127,55.84778833511127 0 0,0 0.5145504287936202,0.8089587386181346 l -29.563162975201273 18.449600178605646" fill="#fff016" stroke="none" /><line stroke="#e1ed5e" stroke-width="0.3" x1="172.87174338648825" x2="177.1583165268699" y1="56.24261187166439" y2="53.66864786411523" /><path d="M 173.72905801456457 55.72781907015455 a86.0,86.0 0 0,1 12.242430191666344,42.057860355516425" fill="none" id="id39" stroke="none" /><text fill="#e1ed5e" style="font-size:6.75px; font-family:Arial;" text-anchor="middle"><textPath startOffset="22.145653131862474" xlink:href="#id39">March</textPath></text><path d="M 119.0197475246899 91.09779779509293 l 37.17011389841497 -17.397490133534873 a62.040102706591576,62.040102706591576 0 0,0 0.4431894860941385,0.9684490100834909 l -37.46328784936416 16.7568521412367" fill="#9dff22" stroke="none" /><path d="M 119.31412917781788 91.75594674310238 l 36.10097228184577 -15.409358370613635 a60.25211491230246,60.25211491230246 0 0,0 0.39787672144544334,0.954759289534412 l -36.3601748478277 14.787366571637945" fill="#bcff1f" stroke="none" /><path d="M 119.58574465831526 92.42381321644754 l 38.346933790937484 -14.833417776296683 a62.11590463668163,62.11590463668163 0 0,0 0.3761541484235343,0.9977935684946431 l -38.595918623175464 14.172955927607882" fill="#9cff22" stroke="none" /><path d="M 120.05942366710727 93.78553927170692 l 29.906252318303064 -9.265033415056209 a52.30854151678285,52.30854151678285 0 0,0 0.2583635438744647,0.8600082093694562 l -30.060892182181156 8.750287602096028" fill="#ffa90f" stroke="none" /><path d="M 120.51834098615036 95.52812308129327 l 40.23165688436512 -8.768302366354032 a62.1760773028356,62.1760773028356 0 0,0 0.21833363201296316,1.0448054668465545 l -40.37624822720245 8.076380448222073" fill="#9aff22" stroke="none" /><path d="M 120.65975698304385 96.23510406497455 l 40.76572033637276 -7.428872222880419 a62.43708601056836,62.43708601056836 0 0,0 0.1831047303435198,1.056099426432861 l -40.88723988420851 6.727979763526966" fill="#96ff23" stroke="none" /><path d="M 120.82617615685814 97.30363454192243 l 40.766274958559556 -5.278010462643444 a62.10652707831998,62.10652707831998 0 0,0 0.12781497761822364,1.0584913688408568 l -40.85087202243744 4.577425416879174" fill="#9cff22" stroke="none" /><path d="M 120.9064616781168 98.02013634271609 l 41.145155130512904 -3.8964889693160734 a62.32924408940931,62.32924408940931 0 0,0 0.09173195879961397,1.0660644099952736 l -41.20598071201026 3.189603511945138" fill="#98ff23" stroke="none" /><path d="M 120.96210409425399 98.7389718711861 l 40.90597901347141 -2.460802118943716 a61.979930040437615,61.979930040437615 0 0,0 0.05477376129254027,1.062596336147355 l -40.942194364220526 1.7582339894196304" fill="#9eff22" stroke="none" /><line stroke="#e1ed5e" stroke-width="0.3" x1="184.99686870605535" x2="189.99668451229388" y1="99.2704041080226" y2="99.22748670261217" /><path d="M 185.99683186730306 99.26182062694052 a86.0,86.0 0 0,1 -10.086455211305974,41.156179273409016" fill="none" id="id40" stroke="none" /><text fill="#e1ed5e" style="font-size:6.75px; font-family:Arial;" text-anchor="middle"><textPath startOffset="21.40746469413373" xlink:href="#id40">April</textPath></text><path d="M 120.99303781780057 100.54070618675476 l 40.7335450356902 1.0491516282877178 a61.74705400778982,61.74705400778982 0 0,0 -0.03638757716043171,1.0593846066965806 l -40.70953277153293 -1.7482424995484092" fill="#a2ff22" stroke="none" /><path d="M 120.592083275326 104.11899336999214 l 38.3547921374839 7.672032616098748 a60.11457738966484,60.11457738966484 0 0,0 -0.21109459759713264,1.0101640666068017 l -38.21743982906241 -8.32931313399096" fill="#bfff1e" stroke="none" /><path d="M 119.94978838288452 106.5578916946017 l 37.16365103750524 12.21643025993304 a60.12004763204247,60.12004763204247 0 0,0 -0.3307019979649868,0.9776616950893438 l -36.94846361796789 -12.852593629496544" fill="#bfff1e" stroke="none" /><path d="M 119.31412917781788 108.2440532568976 l 38.00703807036347 16.222944514054024 a62.32455531022849,62.32455531022849 0 0,0 -0.42845495738840933,0.9803887906343699 l -37.72294923095809 -16.87299537446424" fill="#98ff23" stroke="none" /><path d="M 118.5362547648365 109.86951160357373 l 39.72103862536069 21.149215771606563 a66.00055818799771,66.00055818799771 0 0,0 -0.5410620485736773,0.9954932282869747 l -39.352131227171675 -21.82796383336814" fill="#5bff2a" stroke="none" /><line stroke="#e1ed5e" stroke-width="0.3" x1="174.33088141563837" x2="178.70328620479359" y1="141.23008692659167" y2="143.65538615756765" /><path d="M 175.20536237346943 141.71514677278685 a86.0,86.0 0 0,1 -30.301960400862466,31.631185727798858" fill="none" id="id41" stroke="none" /><text fill="#e1ed5e" style="font-size:6.75px; font-family:Arial;" text-anchor="middle"><textPath startOffset="22.145653131862474" xlink:href="#id41">May</textPath></text><path d="M 116.57777611688842 112.89097897827486 l 31.12635906697221 24.204045076577295 a60.42950705797713,60.42950705797713 0 0,0 -0.6438147289834365,0.8134388783027162 l -30.706277907347214 -24.734803898794695" fill="#b9ff1f" stroke="none" /><path d="M 115.6541949942343 113.99807769240083 l 29.878661667962678 26.717683504462936 a61.082028827309045,61.082028827309045 0 0,0 -0.7056495538451308,0.7756324712831626 l -29.41561441327567 -27.22665355130377" fill="#aeff20" stroke="none" /><path d="M 115.16444852881244 114.52719865689866 l 29.729978650870322 28.480647028208914 a62.170607060457954,62.170607060457954 0 0,0 -0.7449021579465733,0.764335236351598 l -29.23668969177294 -28.98680495662825" fill="#9bff22" stroke="none" /><path d="M 113.59037401385872 116.0094264158162 l 27.225589620013046 32.07167611460402 a63.06928973678334,63.06928973678334 0 0,0 -0.8313903869200671,0.6935754301924878 l -26.671024898931083 -32.534313728708376" fill="#8bff24" stroke="none" /><path d="M 112.45986205192187 116.90419585922612 l 32.48794118884349 44.076131712431035 a75.75556327371058,75.75556327371058 0 0,0 -1.0534315736066624,0.7626032209647843 l -31.726528604862864 -44.627335704768896" fill="#3dffac" stroke="none" /><path d="M 111.5731344415666 117.5232005979908 l 13.898441837985462 21.044012368144543 a46.21938028728076,46.21938028728076 0 0,0 -0.6658107907180747,0.4315705104456964 l -13.535145415010378 -21.279496720294134" fill="#ff2703" stroke="none" /><path d="M 110.96478420261333 117.91015095944535 l 24.500821045460903 40.020249869575586 a67.92452057853085,67.92452057853085 0 0,0 -0.9996783017792477,0.6002780971278517 l -23.810209987124217 -40.43494196723936" fill="#3dff2e" stroke="none" /><line stroke="#e1ed5e" stroke-width="0.3" x1="143.1302829299769" x2="145.66735839644613" y1="173.24464959558577" y2="177.55315839532614" /><path d="M 143.63769802327073 174.10635135553383 a86.0,86.0 0 0,1 -40.68552437913181,11.842963189579606" fill="none" id="id42" stroke="none" /><text fill="#e1ed5e" style="font-size:6.75px; font-family:Arial;" text-anchor="middle"><textPath startOffset="21.407464694133747" xlink:href="#id42">June</textPath></text><path d="M 109.3889696526874 118.78422872680471 l 18.457434647802085 36.92723344090547 a62.283137760797835,62.283137760797835 0 0,0 -0.9604645622682364,0.4698113468983809 l -17.820809836271778 -37.238638537901075" fill="#99ff23" stroke="none" /><path d="M 108.73861861582097 119.09545874513695 l 9.777696713159772 21.36603191156235 a44.497035401523235,44.497035401523235 0 0,0 -0.6973037125380944,0.3118950812731345 l -9.409479597766051 -21.530730743745334" fill="#ff0000" stroke="none" /><path d="M 107.74402155503746 119.51999308798841 l 14.434668672944998 36.38479447929764 a60.14349152794661,60.14349152794661 0 0,0 -0.9629480991514796,0.37248901123302597 l -13.80794831129999 -36.62722337866871" fill="#beff1e" stroke="none" /><path d="M 106.38641147887787 120.00534299687104 l 12.60947506436413 39.49900104423268 a62.462874296062914,62.462874296062914 0 0,0 -1.0242702791243576,0.3173215507289828 l -11.929564152368147 -39.7096391827683" fill="#96ff23" stroke="none" /><path d="M 104.29559338865022 120.5559693870025 l 8.019670060355555 38.37702439204332 a60.20600858369099,60.20600858369099 0 0,0 -1.0134778869756207,0.20272396149874908 l -7.359695687848976 -38.50903775020493" fill="#bdff1f" stroke="none" /><path d="M 103.2317021107853 120.74984581791261 l 6.961841097274603 44.700013932333775 a66.23890446302315,66.23890446302315 0 0,0 -1.1250359168576853,0.16534153703854956 l -6.193480074809232 -44.81293654267121" fill="#57ff2a" stroke="none" /><path d="M 102.51750503828377 120.84855314841334 l 7.552515114851298 62.54565944524002 a84.0,84.0 0 0,0 -1.4330563935968028,0.16057695797211657 l -6.477722819653695 -62.666092163719114" fill="#4dd2ff" stroke="none" /><line stroke="#e1ed5e" stroke-width="0.3" x1="101.45913802915013" x2="101.54496967792366" y1="184.9874750549273" y2="189.98673829345242" /><path d="M 101.47630435890484 185.9873277026323 a86.0,86.0 0 0,1 -42.54439059252881,-10.42667462771756" fill="none" id="id43" stroke="none" /><text fill="#e1ed5e" style="font-size:6.75px; font-family:Arial;" text-anchor="middle"><textPath startOffset="22.145653131862474" xlink:href="#id43">July</textPath></text><line stroke="#e1ed5e" stroke-width="0.3" x1="58.13341422392154" x2="55.67067388415222" y1="173.97424548756322" y2="178.32567169271397" /><path d="M 57.64086615596768 174.84453072859336 a86.0,86.0 0 0,1 -31.369924170532247,-30.572349798747897" fill="none" id="id44" stroke="none" /><text fill="#e1ed5e" style="font-size:6.75px; font-family:Arial;" text-anchor="middle"><textPath startOffset="22.145653131862474" xlink:href="#id44">August</textPath></text><line stroke="#e1ed5e" stroke-width="0.3" x1="26.387840678322732" x2="22.057713659400548" y1="142.50000000000003" y2="145.00000000000006" /><path d="M 25.521815274538298 143.00000000000003 a86.0,86.0 0 0,1 -11.493303480769221,-40.785679425670985" fill="none" id="id45" stroke="none" /><text fill="#e1ed5e" style="font-size:6.75px; font-family:Arial;" text-anchor="middle"><textPath startOffset="21.40746469413373" xlink:href="#id45">September</textPath></text><line stroke="#e1ed5e" stroke-width="0.3" x1="15.003131293944662" x2="10.003315487706104" y1="100.72959589197737" y2="100.7725132973878" /><path d="M 14.003168132696942 100.73817937305945 a86.0,86.0 0 0,1 10.791469493833604,-42.45332614584628" fill="none" id="id46" stroke="none" /><text fill="#e1ed5e" style="font-size:6.75px; font-family:Arial;" text-anchor="middle"><textPath startOffset="22.145653131862435" xlink:href="#id46">October</textPath></text><line stroke="#e1ed5e" stroke-width="0.3" x1="26.387840678322718" x2="22.05771365940052" y1="57.49999999999999" y2="54.99999999999999" /><path d="M 25.521815274538284 56.99999999999999 a86.0,86.0 0 0,1 29.574782752854787,-30.34633250058573" fill="none" id="id47" stroke="none" /><text fill="#e1ed5e" style="font-size:6.75px; font-family:Arial;" text-anchor="middle"><textPath startOffset="21.40746469413373" xlink:href="#id47">November</textPath></text><line stroke="#e1ed5e" stroke-width="0.3" x1="56.869717070023135" x2="54.33264160355391" y1="26.7553504044142" y2="22.446841604673864" /><path d="M 56.362301976729285 25.89364864446614 a86.0,86.0 0 0,1 42.16139366436587,-11.88097634709845" fill="none" id="id48" stroke="none" /><text fill="#e1ed5e" style="font-size:6.75px; font-family:Arial;" text-anchor="middle"><textPath startOffset="22.145653131862474" xlink:href="#id48">December</textPath></text></svg>