<?xml version="1.0" encoding="utf-8" ?>
<svg baseProfile="full" height="200mm" version="1.1" viewBox="0,0,200,200" width="200mm" xmlns="http://www.w3.org/2000/svg" xmlns:ev="http://www.w3.org/2001/xml-events" xmlns:xlink="http://www.w3.org/1999/xlink"><defs /><rect fill="#1a1a1a" height="200" width="200" x="0" y="0" /><text alignment-baseline="middle" fill="#e1ed5e" style="dominant-baseline: central; font-size:9.0px; font-family:Arial;" text-anchor="middle" x="100.0" y="100.0">2021</text><line stroke="#e1ed5e" stroke-width="0.3" x1="100.0" x2="100.0" y1="15.0" y2="10.0" /><path d="M 100.0 14.0 a86.0,86.0 0 0,1 42.46469731375804,11.215312516191453" fill="none" id="id1" stroke="none" /><text fill="#e1ed5e" style="font-size:6.75px; font-family:Arial;" text-anchor="middle"><textPath startOffset="22.20632615414155" xlink:href="#id1">January</textPath></text><line stroke="#e1ed5e" stroke-width="0.3" x1="143.23703022742887" x2="145.7803849466894" y1="26.81831364943548" y2="22.513508569990506" /><path d="M 143.74570117128098 25.957352633546492 a86.0,86.0 0 0,1 28.547481713284135,27.462654790039103" fill="none" id="id2" stroke="none" /><text fill="#e1ed5e" style="font-size:6.75px; font-family:Arial;" text-anchor="middle"><textPath startOffset="19.985693538727396" xlink:href="#id2">February</textPath></text><line stroke="#e1ed5e" stroke-width="0.3" x1="172.23445277983987" x2="176.4835382374775" y1="55.19839476539836" y2="52.563006222186495" /><path d="M 173.08426987136738 54.67131705675599 a86.0,86.0 0 0,1 12.851231095245387,41.99856678651699" fill="none" id="id3" stroke="none" /><text fill="#e1ed5e" style="font-size:6.75px; font-family:Arial;" text-anchor="middle"><textPath startOffset="22.20632615414155" xlink:href="#id3">March</textPath></text><path d="M 120.96714384426684 98.82574320788733 l 13.66975717357819 -0.7655694703498774 a34.691178101190715,34.691178101190715 0 0,0 0.02825908968764363,0.59650471954778 l -13.680909871499331 0.5301536441790976" fill="#ff770a" stroke="none" /><line stroke="#e1ed5e" stroke-width="0.3" x1="184.98032266829074" x2="189.97916517819016" y1="98.17113171792111" y2="98.06355123074" /><path d="M 185.9800911702706 98.14961562048488 a86.0,86.0 0 0,1 -9.607161424134198,41.387399972396054" fill="none" id="id4" stroke="none" /><text fill="#e1ed5e" style="font-size:6.75px; font-family:Arial;" text-anchor="middle"><textPath startOffset="21.466115282336823" xlink:href="#id4">April</textPath></text><path d="M 120.99513854157772 99.54816195383933 l 14.961311748061963 -0.32198357990625387 a35.96477606409218,35.96477606409218 0 0,0 0.007992731138289157,0.6190458349592506 l -14.964637486317969 0.06440148688654056" fill="#ff890c" stroke="none" /><path d="M 120.99824983174949 100.27111621757518 l 13.690037059989539 0.1767571629020492 a34.691178101190715,34.691178101190715 0 0,0 -0.012848848031157309,0.5970354794290129 l -13.684966149273373 -0.4123824581211769" fill="#ff770a" stroke="none" /><path d="M 120.92983693683757 101.71520430193887 l 13.645434530053484 1.1182460751320749 a34.691178101190715,34.691178101190715 0 0,0 -0.05389589005596333,0.5947366556954723 l -13.624164043720445 -1.3529641193761177" fill="#ff770a" stroke="none" /><path d="M 120.8583938346157 102.4346265915055 l 13.59885642354771 1.5872812511522292 a34.691178101190715,34.691178101190715 0 0,0 -0.07433574557154168,0.5925290317976682 l -13.56951916872932 -1.8211280372372924" fill="#ff770a" stroke="none" /><path d="M 120.41448212921028 104.9243191809786 l 17.731185347336147 4.277062506642768 a39.23974225441022,39.23974225441022 0 0,0 -0.16403835237691614,0.6552516760877776 l -17.65493568066417 -4.581642022127942" fill="#ffb811" stroke="none" /><path d="M 120.23288151984713 105.62410040840565 l 21.955862075406927 6.103034446382079 a43.78830640762973,43.78830640762973 0 0,0 -0.20811406656043052,0.7244723676974173 l -21.847555371960397 -6.480064289584078" fill="#fff617" stroke="none" /><path d="M 119.9155931802556 106.66101706037122 l 17.297870783407244 5.78548734920954 a39.23974225441022,39.23974225441022 0 0,0 -0.2197596895496658,0.6387245250617908 l -17.195720262914346 -6.0823845773606315" fill="#ffb811" stroke="none" /><path d="M 119.41010516605496 108.01547362559984 l 21.063020187065582 8.698050903925898 a43.78830640762973,43.78830640762973 0 0,0 -0.2936923806078657,0.694202032430262 l -20.91017682526541 -9.059327462022322" fill="#fff617" stroke="none" /><line stroke="#e1ed5e" stroke-width="0.3" x1="174.80103733775053" x2="179.2010983576182" y1="140.37084112569926" y2="142.7455964860345" /><path d="M 175.68104954172406 140.8457921977663 a86.0,86.0 0 0,1 -30.038265399797805,32.042727171017184" fill="none" id="id5" stroke="none" /><text fill="#e1ed5e" style="font-size:6.75px; font-family:Arial;" text-anchor="middle"><textPath startOffset="22.206326154141568" xlink:href="#id5">May</textPath></text><path d="M 117.75023020441432 111.22182372390056 l 23.606271115706956 14.924055079194915 a48.92818390076777,48.92818390076777 0 0,0 -0.4561857357887444,0.7080103925006778 l -23.34588051654116 -15.328187071617045" fill="#c6ff1e" stroke="none" /><path d="M 116.498646956653 112.99209946851258 l 14.33005085885049 11.284406935682348 a39.23974225441022,39.23974225441022 0 0,0 -0.42244775520506833,0.527068528930122 l -14.133685191590567 -11.52940329819072" fill="#ffb811" stroke="none" /><path d="M 116.0416608686014 113.55231037782055 l 13.933131408378468 11.770983249676934 a39.23974225441022,39.23974225441022 0 0,0 -0.4403399611792278,0.5122148559491854 l -13.72844893762846 -12.009075204787647" fill="#ffb811" stroke="none" /><path d="M 115.32070863581623 114.36230785411682 l 16.625381084523777 15.585365338110535 a43.78830640762973,43.78830640762973 0 0,0 -0.5202331226149585,0.5454623491971686 l -16.354641410529855 -15.86923480389021" fill="#fff617" stroke="none" /><path d="M 114.0293411484842 115.62618273729858 l 15.831790306527738 17.63378948234671 a44.69801923827363,44.69801923827363 0 0,0 -0.5769399964029774,0.50908246716248 l -15.525907957218173 -17.90369509128148" fill="#fcff18" stroke="none" /><path d="M 113.75828350139079 115.86535959552629 l 20.889945255297384 24.089232742779874 a52.88543471406874,52.88543471406874 0 0,0 -0.6928861369557611,0.5904925977574191 l -20.472193641764576 -24.445249730760242" fill="#96ff23" stroke="none" /><path d="M 112.63410532772338 116.77436683061366 l 16.446519142671885 21.836128323270884 a48.336870560849235,48.336870560849235 0 0,0 -0.6689248127578681,0.49485458474457744 l -16.06820935949545 -22.11599285675523" fill="#cdff1d" stroke="none" /><path d="M 111.7513745106137 117.40417183066458 l 35.25412353184112 52.21251549199374 a84.0,84.0 0 0,0 -1.2053012050401435,0.7988079156347263 l -34.35014762806101 -52.81162142871979" fill="#4dd2ff" stroke="none" /><path d="M 111.45004920935366 117.60387380957326 l 3.232334427902053 4.969551338927293 a26.928273472439926,26.928273472439926 0 0,0 -0.3907397603099686,0.24938860224172166 l -3.1463128655451538 -5.0244543699928235" fill="#ff0000" stroke="none" /><line stroke="#e1ed5e" stroke-width="0.3" x1="143.8653032363475" x2="146.44561519142675" y1="172.8068346515853" y2="177.08958963109032" /><path d="M 144.38136562736335 173.6633856474863 a86.0,86.0 0 0,1 -40.68145358897372,12.25698825130547" fill="none" id="id6" stroke="none" /><text fill="#e1ed5e" style="font-size:6.75px; font-family:Arial;" text-anchor="middle"><textPath startOffset="21.466115282336833" xlink:href="#id6">June</textPath></text><path d="M 110.5260780823613 118.17145234162733 l 12.351355306320722 21.32247761675013 a45.641510295024275,45.641510295024275 0 0,0 -0.6832126209914128,0.38794595695303363 l -11.98249391840811 -21.53192673949779" fill="#f0ff19" stroke="none" /><path d="M 108.92500713936063 119.00905698771935 l 9.39611507234042 20.012453108926383 a43.10848836735882,43.10848836735882 0 0,0 -0.6744056229888227,0.3095865440071837 l -9.050241453584178 -20.17122672326764" fill="#ffed16" stroke="none" /><path d="M 108.2653958097858 119.30500536409082 l 8.832897563218458 20.630486278287023 a43.44185917968696,43.44185917968696 0 0,0 -0.6899571375675149,0.28840213946040194 l -8.476468966153481 -20.7794734607674" fill="#fff116" stroke="none" /><path d="M 106.91757812671514 119.82793768551818 l 9.004997040217793 25.8111317141712 a48.336870560849235,48.336870560849235 0 0,0 -0.7879606575273433,0.26731903664900375 l -8.559366649753223 -25.962313737718326" fill="#cdff1d" stroke="none" /><path d="M 106.57524785965236 119.94407469862006 l 6.696090308338349 20.310614618452814 a42.38594612348801,42.38594612348801 0 0,0 -0.694884596116301,0.222480103944149 l -6.3454843671311085 -20.422867569056667" fill="#ffe315" stroke="none" /><path d="M 105.88484417918355 120.15858648285463 l 7.214738302090532 24.714150720985376 a46.745712160032284,46.745712160032284 0 0,0 -0.7743512516775599,0.21883939850966846 l -6.788255882308366 -24.834678912833564" fill="#e1ff1b" stroke="none" /><path d="M 104.13013068566511 120.58985236759428 l 6.497074293965947 32.389725825953626 a54.034925661514066,54.034925661514066 0 0,0 -0.9135308835260936,0.1750803680496034 l -5.938575795868149 -32.496763392351696" fill="#88ff25" stroke="none" /><path d="M 103.7750983002368 120.6578951692458 l 3.537004165810759 19.35500891881965 a40.675537317098886,40.675537317098886 0 0,0 -0.6898397357815135,0.1199374804807915 l -3.2033154585571952 -19.413024977821447" fill="#ffcc13" stroke="none" /><path d="M 103.41894727170886 120.7198165907248 l 4.6395254022260985 28.11687568205334 a49.49708571201525,49.49708571201525 0 0,0 -0.841837327248911,0.1314776772572189 l -4.154852211368671 -28.192571666657663" fill="#bfff1e" stroke="none" /><path d="M 102.70371172650421 120.8252237178851 l 4.46937474048829 34.425167423479905 a55.714081619791365,55.714081619791365 0 0,0 -0.952107430629536,0.11528695044479419 l -3.876139886807374 -34.496999902650046" fill="#75ff27" stroke="none" /><path d="M 102.34483914955558 120.86867818915974 l 2.19279650174084 19.51552392743774 a40.638330648515975,40.638330648515975 0 0,0 -0.6958199537890403,0.07212458324637616 l -1.8565439513461972 -19.550377879139877" fill="#ffcb12" stroke="none" /><path d="M 101.62511606390274 120.93702456842531 l 1.8335000184497292 23.6217189560609 a44.69276954593494,44.69276954593494 0 0,0 -0.767517953437594,0.05293253175045506 l -1.426619304233205 -23.649779832327642" fill="#fcff18" stroke="none" /><path d="M 100.90346689309514 120.98055641714683 l 0.9858321123822668 22.893264169108917 a43.91448034039634,43.91448034039634 0 0,0 -0.7554956197032755,0.026020796708994917 l -0.5916161410043389 -22.906841764244007" fill="#fff817" stroke="none" /><line stroke="#e1ed5e" stroke-width="0.3" x1="102.19456741930631" x2="102.32365962044197" y1="184.97166512339345" y2="189.96999836594603" /><path d="M 102.22038585953345 185.97133177190398 a86.0,86.0 0 0,1 -42.740103519485714,-10.115201625700543" fill="none" id="id7" stroke="none" /><text fill="#e1ed5e" style="font-size:6.75px; font-family:Arial;" text-anchor="middle"><textPath startOffset="22.20632615414155" xlink:href="#id7">July</textPath></text><path d="M 99.81925306533755 120.99922214144158 l -0.23557119942899574 27.368718347415832 a48.369732146482114,48.369732146482114 0 0,0 -0.8325129041349087,-0.014332464632497445 l 0.7066437934565724 -27.360608405504177" fill="#cdff1d" stroke="none" /><path d="M 98.73552117531835 120.96189622390904 l -2.023480184252302 33.54424036647031 a54.605215872236236,54.605215872236236 0 0,0 -0.9377463952016107,-0.06467248175181604 l 2.600589340232843 -33.50443954020221" fill="#81ff25" stroke="none" /><path d="M 98.01472825383883 120.90594882070398 l -2.8452930375173233 29.96242239243216 a51.09721661702066,51.09721661702066 0 0,0 -0.8748996904601737,-0.09068693016519795 l 3.3606253245830904 -29.9090060938112" fill="#abff21" stroke="none" /><path d="M 97.2962882734958 120.8252237178851 l -2.3717538352454217 18.26833228504003 a39.42164978311219,39.42164978311219 0 0,0 -0.6721793178846828,-0.09315792854691904 l 2.6858617443169357 -18.224799791000507" fill="#ffba11" stroke="none" /><path d="M 96.93821686468263 120.77559828337769 l -5.691741406522256 38.6210674527465 a60.03822192964627,60.03822192964627 0 0,0 -1.0211190326658237,-0.1594777925288468 l 6.355696302796598 -38.51737135287055" fill="#44ff2d" stroke="none" /><path d="M 96.58105272829116 120.7198165907248 l -3.7588570586161345 22.779768933479485 a44.08780801743261,44.08780801743261 0 0,0 -0.747710389092925,-0.12999903534916227 l 4.150416419181109 -22.71169131960932" fill="#fffa17" stroke="none" /><path d="M 95.86986931433489 120.58985236759428 l -4.5398578220781 22.632456316912716 a44.0832923990848,44.0832923990848 0 0,0 -0.7427164409095817,-0.15564345148929828 l 4.928765724417069 -22.550956884696877" fill="#fffa17" stroke="none" /><path d="M 95.16358092515715 120.4354850818985 l -5.6642222738891315 23.933229934666 a45.594367425766706,45.594367425766706 0 0,0 -0.7621787104298362,-0.1873249833077587 l 6.075354269062179 -23.83218369304421" fill="#f0ff19" stroke="none" /><path d="M 91.7346041902142 119.30500536409082 l -9.431360364009715 22.028281114174455 a44.962381500195434,44.962381500195434 0 0,0 -0.7088626158507556,-0.3107445392369582 l 9.809143654518213 -21.862672021643043" fill="#f9ff18" stroke="none" /><path d="M 91.07499286063937 119.00905698771935 l -11.979496517921618 25.514705863828674 a49.187028082800595,49.187028082800595 0 0,0 -0.7633061595667169,-0.3664333426309563 l 12.416915345488576 -25.304718244698154" fill="#c3ff1e" stroke="none" /><path d="M 90.42595943632237 118.69057910512821 l -11.904653024062336 23.240434128667527 a47.11203826039344,47.11203826039344 0 0,0 -0.71859116453923,-0.37593293457108873 l 12.302935091128061 -23.03207177515172" fill="#ddff1b" stroke="none" /><line stroke="#e1ed5e" stroke-width="0.3" x1="58.666819895761336" x2="56.23545636021788" y1="174.27360380694188" y2="178.64263932499728" /><path d="M 58.180547188652646 175.14741091055294 a86.0,86.0 0 0,1 -31.652253787137756,-30.449443065178592" fill="none" id="id8" stroke="none" /><text fill="#e1ed5e" style="font-size:6.75px; font-family:Arial;" text-anchor="middle"><textPath startOffset="22.20632615414155" xlink:href="#id8">August</textPath></text><path d="M 88.8546689885994 117.79835938074946 l -12.434426073138406 19.85695926991288 a44.428909134130066,44.428909134130066 0 0,0 -0.6446808156368141,-0.4114657985565042 l 12.774388690822143 -19.63997904253257" fill="#fffe18" stroke="none" /><path d="M 88.24862548938628 117.40417183066458 l -9.87715769929425 14.628395141506822 a38.65072770830676,38.65072770830676 0 0,0 -0.5481834834397363,-0.37704559851372077 l 10.127498067356875 -14.456208753628001" fill="#ffb010" stroke="none" /><path d="M 87.36589467227662 116.77436683061367 l -15.653799833952545 20.783630806965572 a47.01923824330184,47.01923824330184 0 0,0 -0.6423080314344607,-0.49249440908440567 l 16.00923659388049 -20.5110970560538" fill="#deff1b" stroke="none" /><path d="M 86.79598089348748 116.32954008644616 l -16.43287760590947 20.32270109856249 a47.135256768440485,47.135256768440485 0 0,0 -0.6265170553708515,-0.5155808835062329 l 16.780264789825015 -20.036825096199077" fill="#dcff1b" stroke="none" /><path d="M 86.24171649860922 115.8653595955263 l -16.348941314239713 18.852775706384396 a45.95425883354767,45.95425883354767 0 0,0 -0.5931549177782424,-0.5233902499995702 l 16.671038584924545 -18.56856231461254" fill="#ecff1a" stroke="none" /><path d="M 85.44109423537348 115.13401014063109 l -15.517245410905073 16.130206019595246 a43.38232453023683,43.38232453023683 0 0,0 -0.5337059813540683,-0.5223436329738126 l 15.792601344634935 -15.860712283698865" fill="#fff116" stroke="none" /><path d="M 84.9287848128048 114.62390073753433 l -18.098660861842568 17.561491667291346 a46.21839635211437,46.21839635211437 0 0,0 -0.5491041474106297,-0.5757335032705931 l 18.398271560632153 -17.24735104743825" fill="#e8ff1a" stroke="none" /><path d="M 84.43433777217949 114.09645910891817 l -16.999416047881976 15.394884566244931 a43.934310906957585,43.934310906957585 0 0,0 -0.5028201344421782,-0.5649237514054395 l 17.261895031972493 -15.099986645098628" fill="#fff817" stroke="none" /><path d="M 83.28015986056508 112.70617746262583 l -22.42579662196541 17.042396891545746 a49.16664065767736,49.16664065767736 0 0,0 -0.5062729569844802,-0.6782353598249113 l 22.715830845644977 -16.65384865221153" fill="#c3ff1e" stroke="none" /><path d="M 82.85270091963577 112.12312394758628 l -29.692700657309768 20.992710789033303 a57.36413588409051,57.36413588409051 0 0,0 -0.5630948063130715,-0.8111800660891532 l 30.049656370784973 -20.478489460757135" fill="#62ff29" stroke="none" /><path d="M 82.24976979558568 111.22182372390057 l -19.086111955440355 12.066377814374368 a43.580459320723065,43.580459320723065 0 0,0 -0.39541040571952185,-0.637527475433952 l 19.29098700082783 -11.736054007575152" fill="#fff316" stroke="none" /><line stroke="#e1ed5e" stroke-width="0.3" x1="26.63291911575756" x2="22.317208475507996" y1="142.92168965132927" y2="145.44649492493687" /><path d="M 25.769776987707644 143.4266507060508 a86.0,86.0 0 0,1 -11.730757126820373,-40.83630448921669" fill="none" id="id9" stroke="none" /><text fill="#e1ed5e" style="font-size:6.75px; font-family:Arial;" text-anchor="middle"><textPath startOffset="21.46611528233685" xlink:href="#id9">September</textPath></text><path d="M 79.18660465613746 102.79330883721812 l -22.357094377889386 3.000484460537256 a43.557539227933944,43.557539227933944 0 0,0 -0.09333445362753504,-0.7439674279995067 l 22.40543034076377 -2.6151992782503406" fill="#fff316" stroke="none" /><path d="M 79.0095281055655 100.63252640178507 l -22.918374091498826 0.6906217626628826 a43.92877732058446,43.92877732058446 0 0,0 -0.016270251253512957,-0.75601464302604 l 22.926866405437345 -0.29601730384671365" fill="#fff817" stroke="none" /><line stroke="#e1ed5e" stroke-width="0.3" x1="15.007084014347285" x2="10.007500721073583" y1="101.09737516637583" y2="101.16192664675087" /><path d="M 14.007167355692545 101.11028546245083 a86.0,86.0 0 0,1 10.666146001902534,-42.60595125391555" fill="none" id="id10" stroke="none" /><text fill="#e1ed5e" style="font-size:6.75px; font-family:Arial;" text-anchor="middle"><textPath startOffset="22.20632615414155" xlink:href="#id10">October</textPath></text><line stroke="#e1ed5e" stroke-width="0.3" x1="26.266209847984243" x2="21.928928074336255" y1="57.711370442889674" y2="55.22380399835377" /><path d="M 25.398753493254645 57.213857153982495 a86.0,86.0 0 0,1 29.58750427330803,-30.492523968695096" fill="none" id="id11" stroke="none" /><text fill="#e1ed5e" style="font-size:6.75px; font-family:Arial;" text-anchor="middle"><textPath startOffset="21.46611528233685" xlink:href="#id11">November</textPath></text><line stroke="#e1ed5e" stroke-width="0.3" x1="56.762969772571076" x2="54.21961505331055" y1="26.818313649435495" y2="22.513508569990535" /><path d="M 56.25429882871897 25.957352633546506 a86.0,86.0 0 0,1 42.265352541879196,-11.944610805530505" fill="none" id="id12" stroke="none" /><text fill="#e1ed5e" style="font-size:6.75px; font-family:Arial;" text-anchor="middle"><textPath startOffset="22.20632615414155" xlink:href="#id12">December</textPath></text><path d="M 95.33964822691252 79.52364482259891 l -4.500790963811581 -19.775287111682438 a41.28100341820891,41.28100341820891 0 0,0 0.6942231767325643,-0.15173029756876444 l 4.159725062925497 19.849830907347073" fill="#ffd413" stroke="none" /><path d="M 95.692805502759 79.44645832069477 l -3.2424181183427683 -15.472525324728457 a36.80861522014249,36.80861522014249 0 0,0 0.6212480788103674,-0.12461652021087156 l 2.9756036300652644 15.526045801016538" fill="#ff950d" stroke="none" /><path d="M 96.40284397218896 79.31037775812273 l -3.0470668636472213 -17.5256958183618 a38.78860956874598,38.78860956874598 0 0,0 0.6587982936977831,-0.10870736326173544 l 2.744939363810553 17.575549444563162" fill="#ffb210" stroke="none" /><path d="M 98.91598698831166 79.02799685794201 l -1.0581933750115218 -20.472480077598078 a41.49981009050007,41.49981009050007 0 0,0 0.7137160413469588,-0.030734114081977876 l 0.7056365012752389 20.487661918204246" fill="#ffd714" stroke="none" /><path d="M 99.63851952072746 79.00311137660856 l -0.3098491315750259 -17.997839658805564 a39.00050662810389,39.00050662810389 0 0,0 0.6713296108475573,-0.005778345906887028 l 4.408852565027629e-15 18.000506628103892" fill="#ffb510" stroke="none" /></svg>